<?xml version="1.0" encoding="UTF-8" standalone="no"?>

<svg xmlns="http://www.w3.org/2000/svg"
     width="12.192mm" height="18.542mm"
     viewBox="0 0 144 219">
  <path id="pth1"
        fill="none" stroke="black" stroke-width="1"
        d="M 45.00,106.00
           C 38.94,106.68 33.40,110.01 34.27,117.00
             35.33,125.50 43.67,123.32 42.99,134.04
             42.99,134.04 35.58,182.00 35.58,182.00
             34.38,187.43 30.22,200.37 31.65,204.99
             33.82,211.99 43.24,214.36 48.67,209.57
             54.41,204.52 56.70,193.27 57.92,186.00
             57.92,186.00 61.13,162.00 61.13,162.00
             61.13,162.00 65.00,127.00 65.00,127.00
             69.30,127.00 82.79,127.68 85.95,125.98
             92.64,122.36 92.29,110.28 86.79,107.02
             83.99,105.36 70.95,106.00 67.00,106.00
             67.00,106.00 67.00,57.00 67.00,57.00
             67.06,52.52 67.30,46.97 71.22,44.05
             85.15,33.70 92.85,54.30 101.00,58.91
             106.89,62.25 114.88,60.55 115.87,53.00
             117.24,42.48 111.19,34.02 103.00,28.17
             88.46,17.78 67.69,16.15 54.18,29.30
             44.57,38.66 46.02,49.90 46.00,62.00
             46.00,62.00 45.00,79.00 45.00,79.00
             45.00,79.00 45.00,106.00 45.00,106.00 Z" />
</svg>
