<svg width="132.283" height="132.283" viewBox="0 0 413.386 413.386" xmlns:xlink="http://www.w3.org/1999/xlink" xmlns="http://www.w3.org/2000/svg"><defs><linearGradient id="prefix__a"><stop offset="0" stop-color="#D65DB1"/><stop offset="1" stop-color="#845EC2"/></linearGradient><linearGradient xlink:href="#prefix__a" id="prefix__b" gradientUnits="userSpaceOnUse" x1="1980.17" y1="316.783" x2="2239.637" y2="151.667" gradientTransform="translate(-1913.257 -83.792)"/></defs><circle cy="206.693" cx="206.693" r="206.693" fill="#fff" paint-order="stroke markers fill"/><path d="M101.337 365.817c.636-.034.01-.017-.015.038 55.686-.237 82.908-79.477 82.155-106.912L183 173.98c.505-13.137.047-27.087.047-40.262-33.153-1.467-75.591 31.933-81.457 66.23 0 0 8.747 150.07-.252 165.869z" fill="#663fa6"/><path d="M103.643 238.07l1.32 58.447c18.794-22.983 48.959-40.274 77.797-44.567 95.996-9.51 95.879-57.47 94.727-76.747-16.567 6.26-56.986-8.573-94.3 0-41.39 8.484-74.504 47.715-79.544 62.868zm208.732-181.1c-21.639 7.433-82.703-11.041-128.245 0-45.542 11.04-88.642 73.619-82.54 142.978 10.616-29.708 59.811-64.162 81.457-66.23 127.385-4.045 128.282-49.094 129.328-76.748z" fill="url(#prefix__b)"/></svg>