<svg xmlns="http://www.w3.org/2000/svg"
   xmlns:xlink="http://www.w3.org/1999/xlink" width="120" height="120" version="1.1" viewBox="0 0 375 375" fill="#8034d5">
   <path fill-opacity=".7" d="M86.75 346.777c.636-.034.01-.017-.015.038 55.686-.237 81.855-75.63 82.015-103.065V114.678c-33.153-1.467-75.384 31.933-81.25 66.23 0 0 8.25 150.071-.749 165.869z"/>
   <path fill-opacity="1" d="m-1401.828-275.695 1.563 58.446c18.794-22.983 48.974-40.274 77.812-44.567 95.996-9.51 95.302-57.47 94.15-76.747-16.567 6.26-56.836-8.573-94.15 0-41.39 8.484-74.335 47.715-79.375 62.868zm208.413-181.1c-21.639 7.432-82.703-11.042-128.245 0-45.542 11.04-88.145 73.618-82.043 142.977 10.616-29.708 56.545-65.103 81.25-66.23 127.385-4.045 127.992-49.094 129.038-76.748z" transform="translate(1491.203 494.727)"/>
</svg>