<svg width="120" height="120" viewBox="0 0 375 375" xmlns="http://www.w3.org/2000/svg">
   <g fill="#fff">
      <path
         d="M88.145 344.395c.635-.034.01-.016-.016.039 55.687-.237 82.908-79.477 82.156-106.913l-.477-84.963c.504-13.136.047-27.086.047-40.261-33.154-1.467-75.592 31.933-81.458 66.23 0 0 8.747 150.07-.252 165.868z"
         fill-opacity=".778" />
      <path
         d="M90.45 216.65l1.32 58.446c18.794-22.983 48.96-40.274 77.798-44.567 95.996-9.51 95.878-57.47 94.727-76.747-16.568 6.26-56.987-8.573-94.301 0-41.389 8.484-74.504 47.715-79.543 62.868zm208.732-181.1c-21.638 7.432-82.703-11.041-128.245 0-45.542 11.04-88.642 73.618-82.54 142.977 10.616-29.708 59.812-64.162 81.457-66.23 127.386-4.045 128.283-49.094 129.328-76.748z" />
   </g>
</svg>