<svg xmlns="http://www.w3.org/2000/svg" width="46.08" height="70.08" viewBox="0 0 144 219"><path fill="none" stroke="#000" d="M45 106c-6.06.68-11.6 4.01-10.73 11 1.06 8.5 9.4 6.32 8.72 17.04L35.58 182c-1.2 5.43-5.36 18.37-3.93 22.99 2.17 7 11.59 9.37 17.02 4.58 5.74-5.05 8.03-16.3 9.25-23.57l3.21-24L65 127c4.3 0 17.79.68 20.95-1.02 6.69-3.62 6.34-15.7.84-18.96C83.99 105.36 70.95 106 67 106V57c.06-4.48.3-10.03 4.22-12.95C85.15 33.7 92.85 54.3 101 58.91c5.89 3.34 13.88 1.64 14.87-5.91 1.37-10.52-4.68-18.98-12.87-24.83-14.54-10.39-35.31-12.02-48.82 1.13C44.57 38.66 46.02 49.9 46 62l-1 17v27z"/></svg>