<?xml version="1.0" standalone="no"?>
<!DOCTYPE svg PUBLIC "-//W3C//DTD SVG 20010904//EN"
 "http://www.w3.org/TR/2001/REC-SVG-20010904/DTD/svg10.dtd">
<svg version="1.0" xmlns="http://www.w3.org/2000/svg"
 width="700.000000pt" height="700.000000pt" viewBox="0 0 700.000000 700.000000"
 preserveAspectRatio="xMidYMid meet">
<metadata>
Created by potrace 1.14, written by Peter Selinger 2001-2017
</metadata>
<g transform="translate(0.000000,700.000000) scale(0.100000,-0.100000)"
fill="#000000" stroke="none">
<path d="M3589 6356 c-2 -2 -42 -6 -88 -10 -74 -5 -136 -14 -236 -31 -435 -77
-844 -376 -1164 -850 -231 -343 -397 -782 -451 -1195 -6 -47 -13 -101 -16
-120 -7 -47 -12 -389 -7 -468 3 -34 9 -60 14 -56 5 3 5 -6 -1 -20 -6 -16 -6
-26 0 -26 6 0 6 -9 0 -24 -11 -29 -2 -40 19 -24 13 10 13 9 -1 -7 -23 -27 -21
-115 2 -108 12 4 13 3 1 -5 -11 -8 -14 -29 -12 -79 3 -83 9 -132 18 -146 3 -6
1 -7 -5 -3 -7 4 -12 2 -12 -3 0 -6 6 -11 13 -11 8 0 7 -4 -3 -10 -14 -9 -7
-14 13 -11 5 1 5 -4 0 -11 -13 -21 -13 -119 1 -111 8 5 8 3 0 -8 -11 -14 -11
-49 0 -394 5 -183 10 -353 20 -772 3 -84 7 -157 10 -162 4 -5 2 -12 -4 -16 -6
-4 -7 -13 -1 -23 11 -21 11 -33 0 -53 -5 -10 -4 -20 3 -27 5 -5 7 -16 2 -23
-9 -15 -9 -88 0 -117 4 -12 4 -22 -1 -22 -4 0 -8 -16 -8 -35 0 -19 4 -35 8
-35 5 0 5 -5 1 -12 -9 -14 -12 -148 -4 -143 4 2 7 -2 7 -10 0 -8 -4 -12 -7
-10 -4 3 -7 -40 -6 -95 0 -55 -2 -100 -5 -100 -3 0 -5 -18 -4 -39 1 -22 -1
-45 -5 -52 -5 -7 -4 -23 0 -35 6 -15 5 -24 -3 -28 -8 -3 -8 -5 2 -5 10 -1 11
-4 2 -15 -6 -8 -11 -18 -9 -22 2 -8 -4 -51 -18 -137 -2 -15 -11 -46 -18 -67
l-14 -40 69 3 c38 1 69 5 69 8 0 3 10 6 23 6 52 -1 78 4 73 12 -3 4 6 7 19 5
14 -1 25 2 25 7 0 4 7 5 17 2 11 -4 14 -3 9 5 -5 8 -2 10 8 6 9 -3 24 -3 34 2
9 4 19 8 22 9 67 23 140 58 140 67 0 5 4 7 9 3 5 -3 15 0 23 7 7 7 27 20 43
28 17 8 32 16 34 17 2 1 -2 10 -10 19 -13 16 -12 16 8 4 19 -12 24 -12 43 5
18 16 19 20 5 35 -8 9 -15 20 -15 24 0 5 9 -2 19 -15 19 -23 20 -23 38 -6 14
14 15 17 2 12 -9 -3 -22 2 -30 12 -13 16 -12 17 3 4 15 -11 21 -11 35 0 11 10
14 10 9 2 -4 -7 -3 -13 2 -13 13 0 53 50 48 59 -3 5 4 17 17 27 22 19 22 19 4
-2 -9 -11 -14 -24 -10 -28 10 -9 54 44 46 57 -3 6 -1 7 6 3 15 -10 75 50 65
65 -4 7 -3 9 3 6 16 -10 57 39 49 60 -6 14 -5 15 5 6 10 -10 17 -6 36 20 13
17 21 37 18 45 -2 7 -1 11 4 8 16 -10 41 29 36 57 -3 15 -1 27 4 27 6 0 8 -10
6 -23 -4 -22 -4 -22 16 2 26 31 89 139 89 152 0 5 4 9 9 9 8 0 24 37 22 53 -1
4 4 7 10 7 6 0 9 7 5 15 -3 8 0 14 7 12 7 -1 11 8 11 20 -1 12 3 21 9 20 6 -1
12 3 12 8 1 6 15 39 32 75 18 36 33 72 35 80 2 8 9 21 16 29 8 8 12 24 9 37
-2 14 0 21 8 18 6 -3 12 1 12 8 0 7 4 22 9 32 6 15 4 17 -7 11 -12 -8 -12 -6
-1 8 8 9 11 21 7 26 -3 6 0 8 8 5 10 -4 17 6 23 33 4 21 8 44 7 51 0 6 3 12 7
12 4 0 13 14 19 30 8 24 7 29 -2 23 -9 -5 -9 -3 0 8 7 9 14 24 16 35 1 10 7
25 11 33 7 11 6 12 -5 6 -12 -7 -12 -6 -1 7 7 9 14 24 16 34 2 11 7 32 12 48
5 23 4 28 -7 22 -8 -4 -7 -1 3 6 9 8 18 28 21 46 5 32 0 39 -19 25 -5 -5 -2
-1 8 8 21 20 35 85 16 73 -10 -6 -11 -5 -1 8 7 8 10 18 6 21 -3 4 -2 7 3 7 6
0 11 59 12 147 1 80 4 148 7 151 5 5 19 7 120 17 71 8 335 52 385 65 19 5 73
19 120 30 500 124 862 371 1023 695 34 68 70 170 81 230 4 17 9 41 12 55 3 14
8 96 11 184 l5 159 -33 -7 c-19 -3 -45 -9 -59 -12 -33 -7 -237 -6 -309 1 -31
4 -69 8 -86 10 -16 2 -61 6 -100 10 -38 4 -81 8 -95 11 -14 2 -56 6 -95 10
-38 3 -81 7 -95 10 -150 24 -594 23 -735 -1 -16 -3 -54 -10 -84 -15 -30 -6
-59 -10 -65 -10 -8 0 -10 117 -9 381 1 209 3 382 5 384 1 2 64 6 138 10 74 3
158 8 185 10 28 2 86 7 130 10 272 21 552 64 780 120 489 120 813 305 994 568
70 102 140 287 157 416 18 130 27 301 17 301 -4 -1 -35 -7 -68 -15 -46 -11
-109 -14 -270 -11 -115 3 -219 7 -230 9 -11 3 -64 8 -118 11 -53 4 -105 9
-115 10 -21 4 -104 13 -197 21 -38 4 -81 8 -95 10 -14 2 -70 7 -125 11 -55 3
-109 8 -120 11 -25 5 -620 14 -626 9z m-465 -1514 c3 -5 -1 -9 -9 -9 -8 0 -12
4 -9 9 3 4 7 8 9 8 2 0 6 -4 9 -8z m-69 -42 c3 -6 -1 -7 -9 -4 -18 7 -21 14
-7 14 6 0 13 -4 16 -10z m-134 -27 c13 -16 12 -17 -3 -4 -17 13 -22 21 -14 21
2 0 10 -8 17 -17z m49 -7 c0 -3 -4 -8 -10 -11 -5 -3 -10 -1 -10 4 0 6 5 11 10
11 6 0 10 -2 10 -4z m84 -24 c2 -4 -4 -8 -14 -8 -10 0 -16 4 -14 8 3 4 9 8 14
8 5 0 11 -4 14 -8z m-45 -29 c2 -1 -5 -1 -16 0 -11 0 -20 7 -20 14 0 10 4 10
16 1 9 -7 18 -13 20 -15z m102 10 c13 -16 12 -17 -3 -4 -17 13 -22 21 -14 21
2 0 10 -8 17 -17z m-289 -11 c12 -15 11 -16 -4 -3 -13 10 -21 11 -31 2 -10 -8
-14 -7 -14 2 0 19 34 18 49 -1z m-98 -18 c3 -8 2 -12 -4 -9 -6 3 -10 10 -10
16 0 14 7 11 14 -7z m70 -16 c-4 -5 -9 -7 -12 -4 -3 3 -12 0 -21 -7 -14 -10
-14 -10 -4 4 13 16 46 23 37 7z m107 -5 c13 -17 13 -17 -6 -3 -11 8 -22 16
-24 17 -2 2 0 3 6 3 6 0 17 -8 24 -17z m205 5 c3 -4 -1 -5 -10 -4 -8 1 -18 5
-22 8 -3 4 1 5 10 4 8 -1 18 -5 22 -8z m-61 -16 c-3 -3 0 -11 6 -19 17 -20 5
-16 -14 5 -15 16 -15 19 -2 19 8 0 13 -3 10 -5z m-196 -29 c2 -1 -5 -1 -16 0
-11 0 -20 7 -20 14 0 10 4 10 16 1 9 -7 18 -13 20 -15z m-159 12 c0 -7 -30
-13 -34 -7 -3 4 4 9 15 9 10 1 19 0 19 -2z m317 -14 c0 -11 -5 -18 -9 -15 -4
3 -5 11 -1 19 7 21 12 19 10 -4z m-397 -15 c-7 -7 -13 -7 -20 0 -6 6 -3 10 10
10 13 0 16 -4 10 -10z m457 -11 c0 -8 -3 -13 -5 -10 -3 3 -12 -1 -21 -7 -10
-8 -9 -4 3 10 23 26 23 26 23 7z m-423 -11 c3 -8 2 -12 -4 -9 -6 3 -10 10 -10
16 0 14 7 11 14 -7z m32 -12 c-17 -16 -18 -16 -5 5 7 12 15 20 18 17 3 -2 -3
-12 -13 -22z m50 -7 c-1 -8 -5 -17 -8 -21 -5 -4 -4 16 1 34 3 9 9 -1 7 -13z
m174 11 c0 -2 -8 -10 -17 -17 -16 -13 -17 -12 -4 4 13 16 21 21 21 13z m23
-21 c-7 -21 -12 -19 -10 4 0 11 5 18 9 15 4 -3 5 -11 1 -19z m-299 -15 c-6 -6
-10 -3 -10 10 0 13 4 16 10 10 7 -7 7 -13 0 -20z m-104 16 c0 -2 -8 -10 -17
-17 -16 -13 -17 -12 -4 4 13 16 21 21 21 13z m520 0 c0 -2 -8 -10 -17 -17 -16
-13 -17 -12 -4 4 13 16 21 21 21 13z m-481 -30 c9 -11 9 -16 -1 -22 -7 -4 -10
-4 -6 1 4 4 3 14 -3 22 -6 7 -9 13 -6 13 2 0 10 -6 16 -14z m257 2 c3 -4 -1
-5 -10 -4 -8 1 -18 5 -22 8 -3 4 1 5 10 4 8 -1 18 -5 22 -8z m78 4 c2 -4 -4
-8 -14 -8 -10 0 -16 4 -14 8 3 4 9 8 14 8 5 0 11 -4 14 -8z m-370 -23 c3 -3
-5 -5 -19 -5 -13 0 -22 3 -19 7 4 8 30 6 38 -2z m521 -8 c-1 -9 3 -23 9 -31
10 -13 9 -13 -7 -1 -9 8 -15 16 -12 19 3 3 0 10 -5 17 -7 8 -5 12 4 12 8 0 13
-7 11 -16z m70 10 c-9 -8 -36 -10 -30 -2 2 4 11 8 20 8 8 0 13 -3 10 -6z
m-313 -18 c-1 -4 7 -17 16 -28 17 -20 17 -20 -4 -2 -11 9 -21 24 -21 32 0 8 2
13 5 11 2 -2 4 -8 4 -13z m-195 -15 c2 -17 0 -19 -7 -8 -5 8 -6 18 -4 22 8 12
10 10 11 -14z m49 10 c3 -4 -1 -5 -10 -4 -8 1 -18 5 -22 8 -3 4 1 5 10 4 8 -1
18 -5 22 -8z m-158 -7 c16 12 16 12 0 -6 -18 -19 -18 -19 -35 0 -17 18 -17 18
0 6 14 -11 20 -11 35 0z m209 -4 c0 -7 -9 -14 -20 -14 -19 -2 -19 -2 -1 12 11
8 19 15 20 15 0 0 1 -6 1 -13z m240 -14 c0 -10 -4 -10 -16 -1 -9 7 -18 13 -20
15 -2 1 5 1 16 0 11 0 20 -7 20 -14z m-177 -17 c-7 -7 -13 -7 -20 0 -6 6 -3
10 10 10 13 0 16 -4 10 -10z m120 0 c-7 -7 -13 -7 -20 0 -6 6 -3 10 10 10 13
0 16 -4 10 -10z m177 -11 c0 -8 -3 -13 -5 -10 -3 3 -10 0 -17 -5 -8 -7 -12 -5
-12 5 0 8 4 12 8 9 4 -2 10 0 14 6 9 14 12 13 12 -5z m-601 -7 c3 -4 -1 -5
-10 -4 -8 1 -18 5 -22 8 -3 4 1 5 10 4 8 -1 18 -5 22 -8z m268 4 c3 -5 -1 -9
-9 -9 -8 0 -12 4 -9 9 3 4 7 8 9 8 2 0 6 -4 9 -8z m88 -3 c2 -2 1 -3 -1 -1 -2
1 -14 -6 -25 -15 -15 -14 -18 -14 -8 -2 6 9 9 18 6 22 -3 3 1 4 10 3 8 -1 17
-4 18 -7z m120 0 c2 -2 1 -3 -1 -1 -2 1 -14 -6 -25 -15 -15 -14 -18 -14 -8 -2
6 9 9 18 6 22 -3 3 1 4 10 3 8 -1 17 -4 18 -7z m69 -16 c13 -16 12 -17 -3 -4
-17 13 -22 21 -14 21 2 0 10 -8 17 -17z m120 0 c13 -16 12 -17 -3 -4 -17 13
-22 21 -14 21 2 0 10 -8 17 -17z m-763 -12 c-7 -9 -13 -18 -15 -20 -1 -2 -1 5
0 16 0 11 7 20 14 20 10 0 10 -4 1 -16z m81 -15 c-3 -3 -11 5 -18 17 -13 21
-12 21 5 5 10 -10 16 -20 13 -22z m127 22 c3 -4 -1 -5 -10 -4 -8 1 -18 5 -22
8 -3 4 1 5 10 4 8 -1 18 -5 22 -8z m-289 -13 c0 -8 -4 -12 -9 -9 -5 3 -6 10
-3 15 9 13 12 11 12 -6z m577 -15 c-6 -6 -10 -3 -10 10 0 13 4 16 10 10 7 -7
7 -13 0 -20z m-218 -16 c1 -9 -1 -13 -4 -9 -4 4 -7 10 -7 13 0 4 -4 14 -9 22
-7 12 -6 13 4 3 8 -7 15 -20 16 -29z m-163 11 c-3 -9 -8 -14 -10 -11 -3 3 -2
9 2 15 9 16 15 13 8 -4z m243 0 c-1 -8 -8 -21 -16 -28 -10 -10 -11 -9 -4 3 5
8 9 18 10 23 3 14 4 17 8 17 2 0 3 -7 2 -15z m-396 -3 c0 -5 -7 -9 -15 -9 -8
0 -12 4 -9 9 3 4 9 8 15 8 5 0 9 -4 9 -8z m88 -11 c16 12 16 12 0 -6 -18 -19
-18 -19 -35 0 -17 18 -17 18 0 6 14 -11 20 -11 35 0z m488 -11 c0 -12 -4 -16
-9 -11 -5 5 -6 14 -3 20 10 15 12 14 12 -9z m-116 6 c0 -2 -7 -7 -16 -10 -8
-3 -12 -2 -9 4 6 10 25 14 25 6z m40 -2 c0 -8 -19 -13 -24 -6 -3 5 1 9 9 9 8
0 15 -2 15 -3z m285 -3 c-9 -8 -36 -10 -30 -2 2 4 11 8 20 8 8 0 13 -3 10 -6z
m-535 -15 c0 -2 -8 -10 -17 -17 -16 -13 -17 -12 -4 4 13 16 21 21 21 13z m23
-21 c-7 -21 -12 -19 -10 4 0 11 5 18 9 15 4 -3 5 -11 1 -19z m53 13 c3 -4 -1
-5 -10 -4 -8 1 -18 5 -22 8 -3 4 1 5 10 4 8 -1 18 -5 22 -8z m192 -7 c-7 -9
-13 -18 -15 -20 -1 -2 -1 5 0 16 0 11 7 20 14 20 10 0 10 -4 1 -16z m122 5
c-7 -7 -13 -7 -20 0 -6 6 -3 10 10 10 13 0 16 -4 10 -10z m-644 -21 c-1 -8 -5
-17 -8 -21 -5 -4 -4 16 1 34 3 9 9 -1 7 -13z m203 12 c-2 -1 -13 -9 -24 -17
-19 -14 -19 -14 -6 3 7 9 18 17 24 17 6 0 8 -1 6 -3z m358 -12 c0 -8 -4 -12
-9 -9 -5 3 -6 10 -3 15 9 13 12 11 12 -6z m40 -3 c0 -10 -6 -19 -13 -19 -9 0
-9 5 -1 19 7 10 13 18 14 18 1 0 1 -8 0 -18z m76 3 c4 -8 3 -16 -1 -19 -4 -3
-9 4 -9 15 -2 23 3 25 10 4z m52 5 c3 -6 -1 -7 -9 -4 -18 7 -21 14 -7 14 6 0
13 -4 16 -10z m-847 -30 c-7 -10 -14 -17 -17 -15 -4 4 18 35 25 35 2 0 -1 -9
-8 -20z m157 0 c-20 -22 -35 -26 -35 -9 0 5 4 8 9 5 5 -3 14 1 21 9 7 8 15 15
18 15 3 0 -3 -9 -13 -20z m80 -8 c-3 -3 1 -12 8 -21 11 -14 10 -14 -6 -2 -9 8
-15 16 -12 19 3 3 -1 12 -8 21 -11 14 -10 14 6 2 9 -8 15 -16 12 -19z m131 16
c3 -4 -1 -5 -10 -4 -8 1 -18 5 -22 8 -3 4 1 5 10 4 8 -1 18 -5 22 -8z m-426
-2 c0 -2 -8 -10 -17 -17 -16 -13 -17 -12 -4 4 13 16 21 21 21 13z m612 -11 c3
3 11 -3 19 -12 12 -16 12 -17 -2 -6 -9 7 -18 11 -21 8 -3 -3 -11 3 -19 12 -12
16 -12 17 2 6 9 -7 18 -11 21 -8z m109 -2 c13 -16 12 -17 -3 -4 -17 13 -22 21
-14 21 2 0 10 -8 17 -17z m196 2 c0 -8 -3 -13 -5 -10 -3 3 -12 -1 -21 -7 -10
-8 -9 -4 3 10 23 26 23 26 23 7z m-553 -4 c-8 -8 -34 -10 -38 -2 -3 4 6 7 19
7 14 0 22 -2 19 -5z m-340 -19 c2 -4 -4 -8 -14 -8 -10 0 -16 4 -14 8 3 4 9 8
14 8 5 0 11 -4 14 -8z m726 4 c0 -2 -8 -10 -17 -17 -16 -13 -17 -12 -4 4 13
16 21 21 21 13z m23 -21 c-7 -21 -12 -19 -10 4 0 11 5 18 9 15 4 -3 5 -11 1
-19z m-799 -14 c-2 -3 -12 3 -22 13 -16 17 -16 18 5 5 12 -7 20 -15 17 -18z
m122 17 c5 4 6 3 2 -2 -4 -5 -3 -14 2 -21 7 -8 5 -12 -5 -12 -8 0 -13 3 -10 5
3 3 -3 15 -12 26 -14 15 -14 18 -2 8 9 -6 20 -8 25 -4z m254 -3 c-7 -8 -17
-15 -23 -15 -6 0 -2 7 9 15 25 19 30 19 14 0z m-213 -14 c0 -11 -5 -18 -9 -15
-4 3 -5 11 -1 19 7 21 12 19 10 -4z m100 2 c0 -10 -4 -10 -16 -1 -9 7 -18 13
-20 15 -2 1 5 1 16 0 11 0 20 -7 20 -14z m240 0 c0 -10 -4 -10 -16 -1 -9 7
-18 13 -20 15 -2 1 5 1 16 0 11 0 20 -7 20 -14z m53 13 c0 -2 -8 -10 -17 -17
-16 -13 -17 -12 -4 4 13 16 21 21 21 13z m360 0 c0 -2 -8 -10 -17 -17 -16 -13
-17 -12 -4 4 13 16 21 21 21 13z m-705 -25 c-9 -8 -36 -10 -30 -2 2 4 11 8 20
8 8 0 13 -3 10 -6z m245 5 c0 -2 -8 -10 -17 -17 -16 -13 -17 -12 -4 4 13 16
21 21 21 13z m268 -16 c-7 -10 -14 -17 -17 -15 -4 4 18 35 25 35 2 0 -1 -9 -8
-20z m47 10 c3 -6 -1 -7 -9 -4 -18 7 -21 14 -7 14 6 0 13 -4 16 -10z m-109
-15 c-1 -8 -5 -17 -8 -21 -5 -4 -4 16 1 34 3 9 9 -1 7 -13z m-741 -4 c3 -5 2
-12 -3 -15 -5 -3 -9 1 -9 9 0 17 3 19 12 6z m105 5 c0 -2 -7 -7 -16 -10 -8 -3
-12 -2 -9 4 6 10 25 14 25 6z m525 -5 c-9 -8 -36 -10 -30 -2 2 4 11 8 20 8 8
0 13 -3 10 -6z m370 -10 c-1 -9 3 -23 9 -31 10 -13 9 -13 -7 -1 -9 8 -15 16
-12 19 3 3 0 10 -5 17 -7 8 -5 12 4 12 8 0 13 -7 11 -16z m70 10 c-9 -8 -36
-10 -30 -2 2 4 11 8 20 8 8 0 13 -3 10 -6z m-387 -26 c-3 -3 -9 2 -12 12 -6
14 -5 15 5 6 7 -7 10 -15 7 -18z m-520 -5 c-7 -10 -14 -17 -17 -15 -4 4 18 35
25 35 2 0 -1 -9 -8 -20z m287 11 c-9 -8 -36 -10 -30 -2 2 4 11 8 20 8 8 0 13
-3 10 -6z m28 -16 c-7 -21 -12 -19 -10 4 0 11 5 18 9 15 4 -3 5 -11 1 -19z
m53 13 c3 -4 -1 -5 -10 -4 -8 1 -18 5 -22 8 -3 4 1 5 10 4 8 -1 18 -5 22 -8z
m-272 -28 c-6 -6 -10 -3 -10 10 0 13 4 16 10 10 7 -7 7 -13 0 -20z m145 3 c2
-1 -5 -1 -16 0 -11 0 -20 7 -20 14 0 10 4 10 16 1 9 -7 18 -13 20 -15z m182
10 c13 -16 12 -17 -3 -4 -17 13 -22 21 -14 21 2 0 10 -8 17 -17z m35 -3 c0
-12 -4 -16 -9 -11 -5 5 -6 14 -3 20 10 15 12 14 12 -9z m205 3 c13 -16 12 -17
-3 -4 -17 13 -22 21 -14 21 2 0 10 -8 17 -17z m-101 -18 c14 -19 14 -19 -2 -6
-10 7 -18 18 -18 24 0 6 1 8 3 6 1 -2 9 -13 17 -24z m177 8 c0 -10 -4 -10 -16
-1 -9 7 -18 13 -20 15 -2 1 5 1 16 0 11 0 20 -7 20 -14z m-586 -20 c13 -16 12
-17 -3 -4 -10 7 -18 15 -18 17 0 8 8 3 21 -13z m539 13 c0 -2 -8 -10 -17 -17
-16 -13 -17 -12 -4 4 13 16 21 21 21 13z m-89 -23 c13 -16 12 -17 -3 -4 -17
13 -22 21 -14 21 2 0 10 -8 17 -17z m-616 -3 c-3 -5 -12 -10 -18 -10 -7 0 -6
4 3 10 19 12 23 12 15 0z m125 5 c0 -2 -6 -8 -13 -14 -10 -8 -14 -7 -14 2 0 8
6 14 14 14 7 0 13 -1 13 -2z m305 -6 c3 -3 -6 -5 -19 -5 -14 1 -28 4 -31 7 -3
3 6 5 19 5 14 -1 28 -4 31 -7z m95 5 c0 -8 -19 -13 -24 -6 -3 5 1 9 9 9 8 0
15 -2 15 -3z m374 -2 c3 -5 -1 -9 -9 -9 -8 0 -12 4 -9 9 3 4 7 8 9 8 2 0 6 -4
9 -8z m-407 -35 c1 -11 1 -18 0 -16 -2 2 -8 11 -15 20 -9 12 -9 16 1 16 7 0
14 -9 14 -20z m161 4 c-7 -9 -13 -18 -15 -20 -1 -2 -1 5 0 16 0 11 7 20 14 20
10 0 10 -4 1 -16z m-861 -18 c0 -9 -4 -10 -14 -2 -7 6 -13 12 -13 14 0 1 6 2
13 2 8 0 14 -6 14 -14z m62 14 c-2 -1 -13 -9 -24 -17 -19 -14 -19 -14 -6 3 7
9 18 17 24 17 6 0 8 -1 6 -3z m172 -14 c13 -17 13 -17 -6 -3 -11 8 -22 16 -24
17 -2 2 0 3 6 3 6 0 17 -8 24 -17z m146 -1 c0 -10 -6 -19 -13 -19 -9 0 -9 5
-1 19 7 10 13 18 14 18 1 0 1 -8 0 -18z m97 6 c-3 -4 -11 -5 -19 -1 -21 7 -19
12 4 10 11 0 18 -5 15 -9z m117 -5 c13 -17 13 -17 -6 -3 -11 8 -22 16 -24 17
-2 2 0 3 6 3 6 0 17 -8 24 -17z m142 -8 c-3 -9 -8 -14 -10 -11 -3 3 -2 9 2 15
9 16 15 13 8 -4z m85 -10 c-3 -3 -9 2 -12 12 -6 14 -5 15 5 6 7 -7 10 -15 7
-18z m-873 5 c-3 -5 -12 -10 -18 -10 -7 0 -6 4 3 10 19 12 23 12 15 0z m161
-2 c3 -4 -1 -5 -10 -4 -8 1 -18 5 -22 8 -3 4 1 5 10 4 8 -1 18 -5 22 -8z m79
3 c-9 -8 -36 -10 -30 -2 2 4 11 8 20 8 8 0 13 -3 10 -6z m125 5 c0 -2 -8 -10
-17 -17 -16 -13 -17 -12 -4 4 13 16 21 21 21 13z m621 -13 c13 -16 12 -17 -3
-4 -17 13 -22 21 -14 21 2 0 10 -8 17 -17z m-454 -8 c0 -8 -4 -12 -9 -9 -5 3
-6 10 -3 15 9 13 12 11 12 -6z m55 3 c-14 -14 -44 -20 -36 -7 3 5 9 7 14 4 5
-3 11 -1 15 5 3 5 9 10 13 10 3 0 1 -5 -6 -12z m144 -3 c-1 -8 -5 -17 -8 -21
-5 -4 -4 16 1 34 3 9 9 -1 7 -13z m223 -12 c2 -1 -5 -1 -16 0 -11 0 -20 7 -20
14 0 10 4 10 16 1 9 -7 18 -13 20 -15z m-865 9 c3 -5 -1 -9 -9 -9 -8 0 -12 4
-9 9 3 4 7 8 9 8 2 0 6 -4 9 -8z m226 -6 c-7 -7 -13 -7 -20 0 -6 6 -3 10 10
10 13 0 16 -4 10 -10z m346 -14 c-17 -16 -18 -16 -5 5 7 12 15 20 18 17 3 -2
-3 -12 -13 -22z m-429 3 c0 -8 -10 -23 -21 -32 -21 -18 -21 -18 -2 5 11 12 16
22 12 22 -4 0 -4 5 -1 10 9 14 12 13 12 -5z m159 -11 c1 -9 0 -13 -4 -10 -3 4
-7 14 -8 22 -1 9 0 13 4 10 3 -4 7 -14 8 -22z m-32 8 c2 -4 -4 -8 -14 -8 -10
0 -16 4 -14 8 3 4 9 8 14 8 5 0 11 -4 14 -8z m-276 -11 c16 12 16 12 0 -6 -18
-19 -18 -19 -35 0 -17 18 -17 18 0 6 14 -11 20 -11 35 0z m453 -8 c13 -16 12
-17 -3 -4 -10 7 -18 15 -18 17 0 8 8 3 21 -13z m219 2 c0 -7 -30 -13 -34 -7
-3 4 4 9 15 9 10 1 19 0 19 -2z m125 -5 c3 -6 -1 -7 -9 -4 -18 7 -21 14 -7 14
6 0 13 -4 16 -10z m-30 -9 c3 -5 2 -12 -3 -15 -5 -3 -9 1 -9 9 0 17 3 19 12 6z
m-685 -5 c0 -2 -8 -10 -17 -17 -16 -13 -17 -12 -4 4 13 16 21 21 21 13z m110
-10 c-7 -7 -13 -7 -20 0 -6 6 -3 10 10 10 13 0 16 -4 10 -10z m292 -11 c3 0 9
-3 13 -7 4 -3 0 -5 -9 -4 -9 1 -22 8 -29 16 -10 10 -9 11 3 4 8 -5 18 -9 22
-9z m-617 -4 c-9 -8 -36 -10 -30 -2 2 4 11 8 20 8 8 0 13 -3 10 -6z m430 -1
c-3 -5 -12 -10 -18 -10 -7 0 -6 4 3 10 19 12 23 12 15 0z m266 -7 c13 -17 13
-17 -6 -3 -11 8 -22 16 -24 17 -2 2 0 3 6 3 6 0 17 -8 24 -17z m65 5 c4 -7 4
-10 -1 -6 -4 4 -15 2 -24 -5 -14 -11 -14 -10 -2 6 16 20 18 21 27 5z m104 2
c0 -5 -2 -10 -4 -10 -3 0 -8 5 -11 10 -3 6 -1 10 4 10 6 0 11 -4 11 -10z
m-824 -36 c1 -9 0 -13 -4 -10 -3 4 -7 14 -8 22 -1 9 0 13 4 10 3 -4 7 -14 8
-22z m41 3 c1 -11 1 -18 0 -16 -2 2 -8 11 -15 20 -9 12 -9 16 1 16 7 0 14 -9
14 -20z m76 -2 c-7 -21 -12 -19 -10 4 0 11 5 18 9 15 4 -3 5 -11 1 -19z m43
-11 c1 -9 -1 -13 -4 -9 -4 4 -7 10 -7 13 0 4 -4 14 -9 22 -7 12 -6 13 4 3 8
-7 15 -20 16 -29z m325 23 c-6 -8 -9 -16 -6 -19 3 -3 -3 -11 -12 -19 -16 -13
-17 -12 -4 4 7 9 10 17 6 17 -4 0 -2 7 5 15 7 8 15 15 17 15 3 0 0 -6 -6 -13z
m129 9 c0 -2 -8 -10 -17 -17 -16 -13 -17 -12 -4 4 13 16 21 21 21 13z m-413
-34 c0 -10 -6 -19 -13 -19 -9 0 -9 5 -1 19 7 10 13 18 14 18 1 0 1 -8 0 -18z
m97 6 c-3 -4 -11 -5 -19 -1 -21 7 -19 12 4 10 11 0 18 -5 15 -9z m65 9 c-2 -2
-11 -8 -20 -15 -12 -9 -16 -9 -16 1 0 7 9 14 20 14 11 1 18 1 16 0z m356 -15
c-3 -3 -11 0 -18 7 -9 10 -8 11 6 5 10 -3 15 -9 12 -12z m-797 -17 c-3 -3 -9
2 -12 12 -6 14 -5 15 5 6 7 -7 10 -15 7 -18z m640 0 c-3 -3 -9 2 -12 12 -6 14
-5 15 5 6 7 -7 10 -15 7 -18z m122 21 c0 -2 -8 -10 -17 -17 -16 -13 -17 -12
-4 4 13 16 21 21 21 13z m-596 -14 c2 -4 -4 -8 -14 -8 -10 0 -16 4 -14 8 3 4
9 8 14 8 5 0 11 -4 14 -8z m322 -4 c3 -4 -1 -5 -10 -4 -8 1 -18 5 -22 8 -3 4
1 5 10 4 8 -1 18 -5 22 -8z m-425 -15 c13 -16 12 -17 -3 -4 -10 7 -18 15 -18
17 0 8 8 3 21 -13z m35 -3 c0 -12 -4 -16 -9 -11 -5 5 -6 14 -3 20 10 15 12 14
12 -9z m605 3 c13 -16 12 -17 -3 -4 -10 7 -18 15 -18 17 0 8 8 3 21 -13z
m-397 -1 c3 -5 -1 -9 -9 -9 -8 0 -12 4 -9 9 3 4 7 8 9 8 2 0 6 -4 9 -8z m106
4 c0 -2 -8 -10 -17 -17 -16 -13 -17 -12 -4 4 13 16 21 21 21 13z m-414 -21
c-1 -8 -5 -17 -8 -21 -5 -4 -4 16 1 34 3 9 9 -1 7 -13z m495 -32 c13 -17 13
-17 -6 -3 -11 8 -22 16 -24 17 -2 2 0 3 6 3 6 0 17 -8 24 -17z m120 0 c13 -17
13 -17 -6 -3 -11 8 -22 16 -24 17 -2 2 0 3 6 3 6 0 17 -8 24 -17z m-660 -20
c13 -16 12 -17 -3 -4 -10 7 -18 15 -18 17 0 8 8 3 21 -13z m89 3 c-7 -7 -13
-7 -20 0 -6 6 -3 10 10 10 13 0 16 -4 10 -10z m35 5 c3 -5 2 -12 -3 -15 -5 -3
-9 1 -9 9 0 17 3 19 12 6z m34 -5 c9 -11 9 -16 -1 -22 -7 -4 -10 -4 -6 1 4 4
3 14 -3 22 -6 7 -9 13 -6 13 2 0 10 -6 16 -14z m86 -6 c-10 -11 -20 -18 -23
-15 -3 3 -15 -3 -26 -12 -21 -18 -21 -18 -2 4 10 13 22 20 26 18 4 -3 13 2 20
10 7 8 15 15 18 15 3 0 -3 -9 -13 -20z m120 0 c-10 -11 -20 -18 -23 -15 -3 3
-15 -3 -26 -12 -21 -18 -21 -18 -2 4 10 13 22 20 26 18 4 -3 13 2 20 10 7 8
15 15 18 15 3 0 -3 -9 -13 -20z m135 17 c0 -2 -10 -12 -22 -23 l-23 -19 19 23
c18 21 26 27 26 19z m120 0 c0 -2 -10 -12 -22 -23 l-23 -19 19 23 c18 21 26
27 26 19z m-335 -16 c3 -5 2 -12 -3 -15 -5 -3 -9 1 -9 9 0 17 3 19 12 6z m121
-17 c1 -9 0 -13 -4 -10 -3 4 -7 14 -8 22 -1 9 0 13 4 10 3 -4 7 -14 8 -22z
m-446 11 c0 -2 -6 -8 -13 -14 -10 -8 -14 -7 -14 2 0 8 6 14 14 14 7 0 13 -1
13 -2z m476 -23 c-17 -16 -18 -16 -5 5 7 12 15 20 18 17 3 -2 -3 -12 -13 -22z
m91 13 c0 -8 -4 -12 -9 -9 -5 3 -6 10 -3 15 9 13 12 11 12 -6z m29 -13 c-17
-16 -18 -16 -5 5 7 12 15 20 18 17 3 -2 -3 -12 -13 -22z m-392 -31 c-2 -3 -12
3 -22 13 -16 17 -16 18 5 5 12 -7 20 -15 17 -18z m120 0 c-2 -3 -12 3 -22 13
-16 17 -16 18 5 5 12 -7 20 -15 17 -18z m220 -1 c-6 -6 -10 -3 -10 10 0 13 4
16 10 10 7 -7 7 -13 0 -20z m-537 5 c0 -8 -4 -12 -9 -9 -4 3 -8 9 -8 15 0 5 4
9 8 9 5 0 9 -7 9 -15z m40 -3 c0 -10 -6 -19 -13 -19 -9 0 -9 5 -1 19 7 10 13
18 14 18 1 0 1 -8 0 -18z m97 6 c-3 -4 -11 -5 -19 -1 -21 7 -19 12 4 10 11 0
18 -5 15 -9z m202 -38 c0 -12 -4 -16 -9 -11 -5 5 -6 14 -3 20 10 15 12 14 12
-9z m-340 -2 c4 -7 4 -10 -1 -6 -4 4 -15 2 -24 -5 -14 -11 -14 -10 -2 6 16 20
18 21 27 5z m68 4 c3 -5 -1 -9 -9 -9 -8 0 -12 4 -9 9 3 4 7 8 9 8 2 0 6 -4 9
-8z m156 4 c0 -2 -7 -7 -16 -10 -8 -3 -12 -2 -9 4 6 10 25 14 25 6z m46 -8 c3
-4 -1 -5 -10 -4 -8 1 -18 5 -22 8 -3 4 1 5 10 4 8 -1 18 -5 22 -8z m234 6 c0
-8 -19 -13 -24 -6 -3 5 1 9 9 9 8 0 15 -2 15 -3z m-589 -37 c-10 -9 -11 -8 -5
6 3 10 9 15 12 12 3 -3 0 -11 -7 -18z m367 3 c-7 -10 -14 -17 -17 -15 -4 4 18
35 25 35 2 0 -1 -9 -8 -20z m126 8 c-3 -4 -9 -8 -15 -8 -5 0 -9 4 -9 8 0 5 7
9 15 9 8 0 12 -4 9 -9z m114 -7 c-7 -9 -13 -18 -15 -20 -1 -2 -1 5 0 16 0 11
7 20 14 20 10 0 10 -4 1 -16z m-560 -22 c9 -12 9 -16 -1 -16 -7 0 -14 9 -14
20 -1 11 -1 18 0 16 2 -2 8 -11 15 -20z m242 11 c0 -5 -5 -10 -11 -10 -5 0 -7
5 -4 10 3 6 8 10 11 10 2 0 4 -4 4 -10z m157 -8 c0 -10 -6 -19 -13 -19 -9 0
-9 5 -1 19 7 10 13 18 14 18 1 0 1 -8 0 -18z m76 3 c4 -8 3 -16 -1 -19 -4 -3
-9 4 -9 15 -2 23 3 25 10 4z m-343 -9 c0 -2 -8 -10 -17 -17 -16 -13 -17 -12
-4 4 13 16 21 21 21 13z m390 0 c0 -2 -7 -7 -16 -10 -8 -3 -12 -2 -9 4 6 10
25 14 25 6z m-465 -18 c5 4 5 1 1 -6 -6 -10 -11 -10 -22 -1 -8 6 -14 14 -14
16 0 3 6 0 13 -6 8 -6 18 -7 22 -3z m117 -3 c2 3 5 -2 5 -10 0 -10 -4 -12 -12
-5 -7 5 -14 8 -17 5 -2 -3 -5 2 -5 10 0 10 4 12 12 5 7 -5 14 -8 17 -5z m64 3
c5 4 6 3 2 -2 -4 -5 -2 -16 4 -25 10 -12 7 -12 -8 2 -11 9 -23 15 -26 12 -2
-3 -5 2 -5 10 0 10 4 12 12 5 7 -5 16 -6 21 -2z m118 -17 c-2 -3 -12 3 -22 13
-16 17 -16 18 5 5 12 -7 20 -15 17 -18z m-40 11 c3 -5 -1 -9 -9 -9 -8 0 -12 4
-9 9 3 4 7 8 9 8 2 0 6 -4 9 -8z m117 -9 c12 -16 12 -17 -2 -6 -9 7 -20 9 -24
5 -5 -4 -5 -1 -1 6 9 16 11 15 27 -5z m-371 -17 c0 -2 -6 -9 -14 -15 -11 -9
-16 -9 -22 0 -4 7 -3 9 4 5 6 -3 13 -2 17 4 6 10 15 14 15 6z m230 -11 c-7 -8
-17 -15 -23 -15 -6 0 -2 7 9 15 25 19 30 19 14 0z m124 -15 c-6 -6 -10 -3 -10
10 0 13 4 16 10 10 7 -7 7 -13 0 -20z m-240 12 c2 -4 -5 -9 -17 -9 -17 -2 -19
0 -7 7 18 12 18 12 24 2z m-216 -27 c-3 -3 -9 2 -12 12 -6 14 -5 15 5 6 7 -7
10 -15 7 -18z m77 -33 c-3 -3 3 -15 12 -26 18 -21 18 -21 -5 -2 -12 11 -20 21
-17 24 3 3 -3 15 -12 26 -18 21 -18 21 5 2 12 -11 20 -21 17 -24z m99 8 c-6
-6 -10 -3 -10 10 0 13 4 16 10 10 7 -7 7 -13 0 -20z m290 8 c-4 -5 -9 -7 -12
-4 -3 3 -12 0 -21 -7 -14 -10 -14 -10 -4 4 13 16 46 23 37 7z m-139 -17 c-9
-8 -36 -10 -30 -2 2 4 11 8 20 8 8 0 13 -3 10 -6z m81 -3 c3 -4 -1 -5 -10 -4
-8 1 -18 5 -22 8 -3 4 1 5 10 4 8 -1 18 -5 22 -8z m-127 -25 c2 -1 -5 -1 -16
0 -11 0 -20 7 -20 14 0 10 4 10 16 1 9 -7 18 -13 20 -15z m-62 0 c0 -10 -4
-10 -16 -1 -9 7 -18 13 -20 15 -2 1 5 1 16 0 11 0 20 -7 20 -14z m-220 -25 c4
-28 -6 -18 -12 12 -2 12 -1 20 2 16 4 -4 8 -16 10 -28z m43 8 c-7 -7 -13 -7
-20 0 -6 6 -3 10 10 10 13 0 16 -4 10 -10z m120 0 c-7 -7 -13 -7 -20 0 -6 6
-3 10 10 10 13 0 16 -4 10 -10z m145 -16 c3 -6 -1 -7 -9 -4 -18 7 -21 14 -7
14 6 0 13 -4 16 -10z m-261 -18 c2 -4 -4 -8 -14 -8 -10 0 -16 4 -14 8 3 4 9 8
14 8 5 0 11 -4 14 -8z m43 -20 c-10 -10 -15 -21 -12 -24 3 -3 -5 -13 -17 -24
l-23 -19 19 23 c11 12 15 22 11 22 -4 0 0 9 10 20 10 11 20 20 23 20 3 0 -2
-8 -11 -18z m130 5 c0 -7 -9 -14 -20 -14 -19 -2 -19 -2 -1 12 11 8 19 15 20
15 0 0 1 -6 1 -13z m99 -22 c-1 -8 -5 -17 -8 -21 -5 -4 -4 16 1 34 3 9 9 -1 7
-13z m-36 -9 c-7 -7 -13 -7 -20 0 -6 6 -3 10 10 10 13 0 16 -4 10 -10z m-106
-26 c-6 -6 -10 -3 -10 10 0 13 4 16 10 10 7 -7 7 -13 0 -20z m-81 -40 c10 -12
9 -12 -4 -2 -9 6 -18 9 -21 6 -3 -3 -9 -1 -12 4 -9 15 22 8 37 -8z m124 3 c0
-10 -4 -10 -16 -1 -9 7 -18 13 -20 15 -2 1 5 1 16 0 11 0 20 -7 20 -14z m-57
-17 c-7 -7 -13 -7 -20 0 -6 6 -3 10 10 10 13 0 16 -4 10 -10z m-66 -14 c3 -5
-1 -9 -9 -9 -8 0 -12 4 -9 9 3 4 7 8 9 8 2 0 6 -4 9 -8z m118 -3 c2 -2 1 -3
-1 -2 -2 2 -9 -2 -16 -7 -8 -7 -12 -5 -12 4 0 12 22 16 29 5z m-51 -16 c13
-16 12 -17 -3 -4 -10 7 -18 15 -18 17 0 8 8 3 21 -13z m-124 -16 c1 -11 1 -18
0 -16 -2 2 -8 11 -15 20 -9 12 -9 16 1 16 7 0 14 -9 14 -20z m59 -7 c0 -12 -4
-16 -9 -11 -5 5 -6 14 -3 20 10 15 12 14 12 -9z m-6 -35 c5 3 11 1 14 -4 4 -5
0 -8 -6 -7 -21 3 -38 16 -38 29 0 7 5 4 11 -6 6 -9 14 -15 19 -12z m-74 0 c-1
-8 -5 -17 -8 -21 -5 -4 -4 16 1 34 3 9 9 -1 7 -13z m16 -80 c3 3 11 -3 19 -12
12 -16 12 -17 -2 -6 -9 7 -18 11 -21 8 -3 -3 -11 3 -19 12 -12 16 -12 17 2 6
9 -7 18 -11 21 -8z m22 -43 c2 -4 -5 -9 -17 -9 -17 -2 -19 0 -7 7 18 12 18 12
24 2z m-29 -42 c3 -6 -1 -7 -9 -4 -18 7 -21 14 -7 14 6 0 13 -4 16 -10z m1327
-472 c-14 -14 -44 -20 -36 -7 3 5 9 7 14 4 5 -3 11 -1 15 5 3 5 9 10 13 10 3
0 1 -5 -6 -12z m41 -3 c-3 -9 -8 -14 -10 -11 -3 3 -2 9 2 15 9 16 15 13 8 -4z
m-234 -89 c-3 -3 -11 5 -18 17 -13 21 -12 21 5 5 10 -10 16 -20 13 -22z m133
12 c-14 -14 -44 -20 -36 -7 3 5 9 7 14 4 5 -3 11 -1 15 5 3 5 9 10 13 10 3 0
1 -5 -6 -12z m120 0 c-14 -14 -44 -20 -36 -7 3 5 9 7 14 4 5 -3 11 -1 15 5 3
5 9 10 13 10 3 0 1 -5 -6 -12z m-332 -23 c14 -19 14 -19 -2 -6 -10 7 -18 18
-18 24 0 6 1 8 3 6 1 -2 9 -13 17 -24z m117 18 c-4 -3 -1 -13 6 -22 11 -14 10
-14 -5 -2 -21 15 -23 31 -6 31 6 0 8 -3 5 -7z m127 -21 c2 -4 -4 -8 -14 -8
-10 0 -16 4 -14 8 3 4 9 8 14 8 5 0 11 -4 14 -8z m120 0 c2 -4 -4 -8 -14 -8
-10 0 -16 4 -14 8 3 4 9 8 14 8 5 0 11 -4 14 -8z m-314 -17 c-7 -8 -17 -15
-23 -15 -6 0 -2 7 9 15 25 19 30 19 14 0z m120 0 c-7 -8 -17 -15 -23 -15 -6 0
-2 7 9 15 25 19 30 19 14 0z m117 -3 c-10 -10 -15 -21 -12 -24 3 -3 -5 -13
-17 -24 l-23 -19 19 23 c11 12 15 22 11 22 -4 0 0 9 10 20 10 11 20 20 23 20
3 0 -2 -8 -11 -18z m-91 -28 c1 -9 0 -13 -4 -10 -3 4 -7 14 -8 22 -1 9 0 13 4
10 3 -4 7 -14 8 -22z m-235 -11 c13 -16 12 -17 -3 -4 -17 13 -22 21 -14 21 2
0 10 -8 17 -17z m373 -2 c-7 -8 -54 -9 -49 -1 2 3 15 6 29 6 14 0 23 -2 20 -5z
m-497 -33 c2 -17 0 -19 -7 -8 -5 8 -6 18 -4 22 8 12 10 10 11 -14z m49 10 c3
-4 -1 -5 -10 -4 -8 1 -18 5 -22 8 -3 4 1 5 10 4 8 -1 18 -5 22 -8z m159 3 c-9
-8 -36 -10 -30 -2 2 4 11 8 20 8 8 0 13 -3 10 -6z m70 -19 c-3 -3 1 -12 8 -21
11 -14 10 -14 -6 -2 -9 8 -15 16 -12 19 3 3 -1 12 -8 21 -11 14 -10 14 6 2 9
-8 15 -16 12 -19z m76 5 c-10 -9 -11 -8 -5 6 3 10 9 15 12 12 3 -3 0 -11 -7
-18z m-254 0 c0 -7 -9 -14 -20 -14 -19 -2 -19 -2 -1 12 11 8 19 15 20 15 0 0
1 -6 1 -13z m62 -14 c2 -1 -5 -1 -16 0 -11 0 -20 7 -20 14 0 10 4 10 16 1 9
-7 18 -13 20 -15z m-308 0 c13 -16 12 -17 -3 -4 -10 7 -18 15 -18 17 0 8 8 3
21 -13z m69 6 c0 -4 -9 -7 -19 -6 -11 0 -18 4 -16 7 6 9 35 8 35 -1z m599 8
c-2 -1 -13 -9 -24 -17 -19 -14 -19 -14 -6 3 7 9 18 17 24 17 6 0 8 -1 6 -3z
m-118 -24 c13 -16 12 -17 -3 -4 -17 13 -22 21 -14 21 2 0 10 -8 17 -17z m-505
-29 c1 -9 0 -13 -4 -10 -3 4 -7 14 -8 22 -1 9 0 13 4 10 3 -4 7 -14 8 -22z
m549 6 c10 -11 16 -20 13 -20 -3 0 -13 9 -23 20 -10 11 -16 20 -13 20 3 0 13
-9 23 -20z m-594 -13 c-10 -9 -11 -8 -5 6 3 10 9 15 12 12 3 -3 0 -11 -7 -18z
m209 14 c0 -6 -4 -12 -8 -15 -5 -3 -9 1 -9 9 0 8 4 15 9 15 4 0 8 -4 8 -9z
m-106 -27 c3 -8 2 -12 -4 -9 -6 3 -10 10 -10 16 0 14 7 11 14 -7z m443 -7 c1
-11 1 -18 0 -16 -2 2 -8 11 -15 20 -9 12 -9 16 1 16 7 0 14 -9 14 -20z m-480
-15 c0 -10 -6 -19 -13 -19 -9 0 -9 5 -1 19 7 10 13 18 14 18 1 0 1 -8 0 -18z
m163 13 c0 -7 -30 -13 -34 -7 -3 4 4 9 15 9 10 1 19 0 19 -2z m97 -12 c0 -10
-4 -10 -16 -1 -9 7 -18 13 -20 15 -2 1 5 1 16 0 11 0 20 -7 20 -14z m114 0
c13 -17 13 -17 -6 -3 -11 8 -22 16 -24 17 -2 2 0 3 6 3 6 0 17 -8 24 -17z
m186 -1 c0 -10 -6 -19 -13 -19 -9 0 -9 5 -1 19 7 10 13 18 14 18 1 0 1 -8 0
-18z m-726 -19 c13 -16 12 -17 -3 -4 -10 7 -18 15 -18 17 0 8 8 3 21 -13z m89
2 c-10 -12 -10 -18 1 -32 12 -17 12 -17 -6 -1 -15 14 -16 20 -5 32 7 9 15 16
17 16 3 0 0 -7 -7 -15z m594 7 c3 -5 -1 -9 -9 -9 -8 0 -12 4 -9 9 3 4 7 8 9 8
2 0 6 -4 9 -8z m-422 -17 c3 0 9 -3 13 -7 4 -3 0 -5 -9 -4 -9 1 -22 8 -29 16
-10 10 -9 11 3 4 8 -5 18 -9 22 -9z m43 6 c3 -5 2 -12 -3 -15 -5 -3 -9 1 -9 9
0 17 3 19 12 6z m-255 -15 c-7 -7 -13 -7 -20 0 -6 6 -3 10 10 10 13 0 16 -4
10 -10z m425 5 c-9 -8 -36 -10 -30 -2 2 4 11 8 20 8 8 0 13 -3 10 -6z m60 -1
c-3 -5 -12 -10 -18 -10 -7 0 -6 4 3 10 19 12 23 12 15 0z m-569 -15 c-1 -8 -8
-21 -16 -28 -10 -10 -11 -9 -4 3 5 8 9 18 10 23 3 14 4 17 8 17 2 0 3 -7 2
-15z m160 -11 c1 -9 0 -13 -4 -10 -3 4 -7 14 -8 22 -1 9 0 13 4 10 3 -4 7 -14
8 -22z m-112 8 c2 -4 -4 -8 -14 -8 -10 0 -16 4 -14 8 3 4 9 8 14 8 5 0 11 -4
14 -8z m155 -26 c-3 -3 -11 5 -18 17 -13 21 -12 21 5 5 10 -10 16 -20 13 -22z
m205 26 c2 -4 -4 -8 -14 -8 -10 0 -16 4 -14 8 3 4 9 8 14 8 5 0 11 -4 14 -8z
m200 0 c2 -4 -4 -8 -14 -8 -10 0 -16 4 -14 8 3 4 9 8 14 8 5 0 11 -4 14 -8z
m-731 -17 c-3 -9 -8 -14 -10 -11 -3 3 -2 9 2 15 9 16 15 13 8 -4z m467 11 c0
-2 -8 -10 -17 -17 -16 -13 -17 -12 -4 4 13 16 21 21 21 13z m121 -13 c13 -16
12 -17 -3 -4 -17 13 -22 21 -14 21 2 0 10 -8 17 -17z m35 -3 c0 -12 -4 -16 -9
-11 -5 5 -6 14 -3 20 10 15 12 14 12 -9z m183 7 c-2 -2 -11 -8 -20 -15 -12 -9
-16 -9 -16 1 0 7 9 14 20 14 11 1 18 1 16 0z m-761 -32 c-3 -3 -9 2 -12 12 -6
14 -5 15 5 6 7 -7 10 -15 7 -18z m322 -20 c0 -5 -5 -3 -10 5 -5 8 -10 20 -10
25 0 6 5 3 10 -5 5 -8 10 -19 10 -25z m-264 -1 c1 -9 0 -13 -4 -10 -3 4 -7 14
-8 22 -1 9 0 13 4 10 3 -4 7 -14 8 -22z m200 11 c-1 -8 -5 -17 -8 -21 -5 -4
-4 16 1 34 3 9 9 -1 7 -13z m140 -5 c0 -12 -4 -16 -9 -11 -5 5 -6 14 -3 20 10
15 12 14 12 -9z m158 -10 c-6 -6 -10 -3 -10 10 0 13 4 16 10 10 7 -7 7 -13 0
-20z m-524 16 c0 -2 -8 -10 -17 -17 -16 -13 -17 -12 -4 4 13 16 21 21 21 13z
m130 -8 c0 -6 -3 -8 -7 -5 -3 4 -13 1 -22 -6 -14 -11 -14 -10 -2 6 15 20 31
22 31 5z m477 5 c-4 -3 -1 -13 6 -22 11 -14 10 -14 -5 -2 -21 15 -23 31 -6 31
6 0 8 -3 5 -7z m118 -1 c-3 -3 1 -12 7 -21 10 -12 7 -12 -8 2 -11 9 -24 14
-29 10 -4 -5 -5 -3 -2 3 3 6 13 11 22 11 8 0 13 -3 10 -5z m96 -15 c-10 -9
-11 -8 -5 6 3 10 9 15 12 12 3 -3 0 -11 -7 -18z m-237 -37 c-6 -6 -10 -3 -10
10 0 13 4 16 10 10 7 -7 7 -13 0 -20z m196 15 c-7 -8 -17 -15 -23 -15 -6 0 -2
7 9 15 25 19 30 19 14 0z m-944 -23 c-17 -16 -18 -16 -5 5 7 12 15 20 18 17 3
-2 -3 -12 -13 -22z m252 7 c9 -12 9 -16 -1 -16 -7 0 -14 9 -14 20 -1 11 -1 18
0 16 2 -2 8 -11 15 -20z m162 11 c0 -5 -5 -10 -11 -10 -5 0 -7 5 -4 10 3 6 8
10 11 10 2 0 4 -4 4 -10z m131 -7 c13 -16 12 -17 -3 -4 -15 11 -21 11 -35 0
-16 -13 -17 -12 -4 4 7 9 17 17 21 17 4 0 14 -8 21 -17z m-575 -27 c1 -7 -4
-13 -12 -13 -9 0 -11 4 -4 12 5 7 8 15 5 18 -3 4 -2 5 2 2 4 -3 8 -11 9 -19z
m363 -10 c-3 -3 -11 5 -18 17 -13 21 -12 21 5 5 10 -10 16 -20 13 -22z m281
22 c0 -4 -4 -8 -9 -8 -6 0 -12 4 -15 8 -3 5 1 9 9 9 8 0 15 -4 15 -9z m-224
-24 c1 -9 0 -13 -4 -10 -3 4 -7 14 -8 22 -1 9 0 13 4 10 3 -4 7 -14 8 -22z
m280 0 c1 -9 0 -13 -4 -10 -3 4 -7 14 -8 22 -1 9 0 13 4 10 3 -4 7 -14 8 -22z
m-630 4 c3 -4 -1 -5 -10 -4 -8 1 -18 5 -22 8 -3 4 1 5 10 4 8 -1 18 -5 22 -8z
m39 2 c-3 -5 -12 -10 -18 -10 -7 0 -6 4 3 10 19 12 23 12 15 0z m110 -8 c-3
-3 -11 0 -18 7 -9 10 -8 11 6 5 10 -3 15 -9 12 -12z m39 10 c3 -5 -1 -9 -9 -9
-8 0 -12 4 -9 9 3 4 7 8 9 8 2 0 6 -4 9 -8z m291 -1 c-9 -8 -36 -10 -30 -2 2
4 11 8 20 8 8 0 13 -3 10 -6z m212 -15 c18 -21 18 -21 -3 -3 -11 9 -23 14 -26
11 -3 -3 -8 -1 -12 4 -11 18 25 8 41 -12z m237 12 c-2 -4 -14 -5 -26 -3 -12 3
-29 -1 -37 -8 -14 -10 -14 -10 -3 4 12 16 75 22 66 7z m-1070 -16 c3 -5 -1 -9
-9 -9 -8 0 -12 4 -9 9 3 4 7 8 9 8 2 0 6 -4 9 -8z m560 0 c3 -5 -1 -9 -9 -9
-8 0 -15 4 -15 9 0 4 4 8 9 8 6 0 12 -4 15 -8z m396 -4 c0 -4 -4 -8 -9 -8 -6
0 -12 4 -15 8 -3 5 1 9 9 9 8 0 15 -4 15 -9z m-899 -15 c13 -16 12 -17 -3 -4
-17 13 -22 21 -14 21 2 0 10 -8 17 -17z m35 -3 c0 -12 -4 -16 -9 -11 -5 5 -6
14 -3 20 10 15 12 14 12 -9z m278 -10 c-6 -6 -10 -3 -10 10 0 13 4 16 10 10 7
-7 7 -13 0 -20z m46 26 c0 -2 -8 -10 -17 -17 -16 -13 -17 -12 -4 4 13 16 21
21 21 13z m190 -11 c-7 -8 -17 -15 -23 -15 -6 0 -2 7 9 15 25 19 30 19 14 0z
m69 -12 c2 -1 -5 -1 -16 0 -11 0 -20 7 -20 14 0 10 4 10 16 1 9 -7 18 -13 20
-15z m-468 0 c13 -16 12 -17 -3 -4 -10 7 -18 15 -18 17 0 8 8 3 21 -13z m295
-11 c-17 -16 -18 -16 -5 5 7 12 15 20 18 17 3 -2 -3 -12 -13 -22z m268 20 c2
-4 -5 -9 -17 -9 -17 -2 -19 0 -7 7 18 12 18 12 24 2z m103 1 c-4 -3 -1 -13 6
-22 11 -14 10 -14 -5 -2 -16 12 -16 31 -1 31 4 0 3 -3 0 -7z m121 -14 c9 -12
9 -16 -1 -16 -7 0 -14 9 -14 20 -1 11 -1 18 0 16 2 -2 8 -11 15 -20z m-828 -3
c0 -2 -8 -10 -17 -17 -16 -13 -17 -12 -4 4 13 16 21 21 21 13z m141 -13 c13
-16 12 -17 -3 -4 -10 7 -18 15 -18 17 0 8 8 3 21 -13z m729 7 c0 -5 -5 -10
-11 -10 -5 0 -7 5 -4 10 3 6 8 10 11 10 2 0 4 -4 4 -10z m-763 -14 c0 -15 -21
-16 -34 -1 -4 4 -3 5 4 1 6 -3 14 -2 18 4 8 14 12 13 12 -4z m203 10 c0 -2 -8
-10 -17 -17 -16 -13 -17 -12 -4 4 13 16 21 21 21 13z m296 -16 c0 -12 -4 -16
-9 -11 -5 5 -6 14 -3 20 10 15 12 14 12 -9z m-561 1 c-9 -8 -36 -10 -30 -2 2
4 11 8 20 8 8 0 13 -3 10 -6z m185 4 c0 -7 -30 -13 -34 -7 -3 4 4 9 15 9 10 1
19 0 19 -2z m-470 -19 c0 -2 -8 -10 -17 -17 -16 -13 -17 -12 -4 4 13 16 21 21
21 13z m23 -21 c-7 -21 -12 -19 -10 4 0 11 5 18 9 15 4 -3 5 -11 1 -19z m211
17 c2 -4 -4 -8 -14 -8 -10 0 -16 4 -14 8 3 4 9 8 14 8 5 0 11 -4 14 -8z m160
0 c2 -4 -4 -8 -14 -8 -10 0 -16 4 -14 8 3 4 9 8 14 8 5 0 11 -4 14 -8z m193
-14 c2 -17 0 -19 -7 -8 -5 8 -6 18 -4 22 8 12 10 10 11 -14z m34 5 c13 -16 12
-17 -3 -4 -10 7 -18 15 -18 17 0 8 8 3 21 -13z m330 4 c-6 -8 -8 -16 -5 -19 3
-3 1 -9 -4 -12 -6 -3 -9 0 -8 6 2 16 15 38 23 38 3 0 0 -6 -6 -13z m117 -6
c-7 -9 -13 -18 -15 -20 -1 -2 -1 5 0 16 0 11 7 20 14 20 10 0 10 -4 1 -16z
m-906 -3 c-14 -14 -44 -20 -36 -7 3 5 9 7 14 4 5 -3 11 -1 15 5 3 5 9 10 13
10 3 0 1 -5 -6 -12z m125 -1 c0 -7 -9 -14 -20 -14 -19 -2 -19 -2 -1 12 11 8
19 15 20 15 0 0 1 -6 1 -13z m62 -14 c2 -1 -5 -1 -16 0 -11 0 -20 7 -20 14 0
10 4 10 16 1 9 -7 18 -13 20 -15z m113 12 c3 0 9 -3 13 -7 4 -3 0 -5 -9 -4 -9
1 -22 8 -29 16 -10 10 -9 11 3 4 8 -5 18 -9 22 -9z m208 -5 c0 -5 -2 -10 -4
-10 -3 0 -8 5 -11 10 -3 6 -1 10 4 10 6 0 11 -4 11 -10z m91 -7 c13 -17 13
-17 -6 -3 -11 8 -22 16 -24 17 -2 2 0 3 6 3 6 0 17 -8 24 -17z m68 14 c-2 -2
-11 -8 -20 -15 -12 -9 -16 -9 -16 1 0 7 9 14 20 14 11 1 18 1 16 0z m79 -18
c9 -12 9 -16 -1 -16 -7 0 -14 9 -14 20 -1 11 -1 18 0 16 2 -2 8 -11 15 -20z
m-959 -2 c8 -10 7 -14 -2 -14 -8 0 -14 6 -14 14 0 7 1 13 2 13 2 0 8 -6 14
-13z m594 -2 c-3 -9 -8 -14 -10 -11 -3 3 -2 9 2 15 9 16 15 13 8 -4z m-548 -5
c3 -6 -1 -7 -9 -4 -18 7 -21 14 -7 14 6 0 13 -4 16 -10z m639 2 c2 -4 -4 -8
-14 -8 -10 0 -16 4 -14 8 3 4 9 8 14 8 5 0 11 -4 14 -8z m81 -1 c-9 -8 -36
-10 -30 -2 2 4 11 8 20 8 8 0 13 -3 10 -6z m315 1 c0 -5 -7 -9 -15 -9 -8 0
-12 4 -9 9 3 4 9 8 15 8 5 0 9 -4 9 -8z m-885 -40 c-3 -3 1 -12 8 -21 11 -14
10 -14 -6 -2 -9 8 -15 16 -12 19 3 3 -3 15 -12 26 -18 21 -18 21 5 2 12 -11
20 -21 17 -24z m221 18 c0 -12 -4 -16 -9 -11 -5 5 -6 14 -3 20 10 15 12 14 12
-9z m111 2 c-10 -10 -15 -21 -12 -24 3 -3 -5 -13 -17 -24 l-23 -19 19 23 c11
12 15 22 11 22 -4 0 0 9 10 20 10 11 20 20 23 20 3 0 -2 -8 -11 -18z m614 1
c13 -16 12 -17 -3 -4 -17 13 -22 21 -14 21 2 0 10 -8 17 -17z m-841 -2 c0 -6
-4 -12 -8 -15 -5 -3 -9 1 -9 9 0 8 4 15 9 15 4 0 8 -4 8 -9z m531 -8 c13 -16
12 -17 -3 -4 -17 13 -22 21 -14 21 2 0 10 -8 17 -17z m-879 -10 c-1 -4 7 -17
16 -28 17 -20 17 -20 -4 -2 -11 9 -21 24 -21 32 0 8 2 13 5 11 2 -2 4 -8 4
-13z m643 8 c3 -5 2 -12 -3 -15 -5 -3 -9 1 -9 9 0 17 3 19 12 6z m162 -6 c0
-8 -10 -23 -21 -32 -21 -18 -21 -18 -2 5 11 12 16 22 12 22 -4 0 -4 5 -1 10 9
14 12 13 12 -5z m179 -25 c0 -12 -4 -16 -9 -11 -5 5 -6 14 -3 20 10 15 12 14
12 -9z m-839 -7 c0 -10 -4 -10 -16 -1 -9 7 -18 13 -20 15 -2 1 5 1 16 0 11 0
20 -7 20 -14z m237 5 c-3 -4 -11 -5 -19 -1 -21 7 -19 12 4 10 11 0 18 -5 15
-9z m65 9 c-2 -2 -11 -8 -20 -15 -12 -9 -16 -9 -16 1 0 7 9 14 20 14 11 1 18
1 16 0z m240 0 c-2 -2 -11 -8 -20 -15 -12 -9 -16 -9 -16 1 0 7 9 14 20 14 11
1 18 1 16 0z m-715 -29 c-3 -4 -9 -8 -15 -8 -5 0 -9 4 -9 8 0 5 7 9 15 9 8 0
12 -4 9 -9z m116 -2 c-7 -7 -13 -7 -20 0 -6 6 -3 10 10 10 13 0 16 -4 10 -10z
m520 0 c-7 -7 -13 -7 -20 0 -6 6 -3 10 10 10 13 0 16 -4 10 -10z m111 -3 c13
-16 12 -17 -3 -4 -10 7 -18 15 -18 17 0 8 8 3 21 -13z m118 3 c9 -11 9 -16 -1
-22 -7 -4 -10 -4 -6 1 4 4 3 14 -3 22 -6 7 -9 13 -6 13 2 0 10 -6 16 -14z
m101 10 c0 -2 -8 -10 -17 -17 -16 -13 -17 -12 -4 4 13 16 21 21 21 13z m120 0
c0 -2 -8 -10 -17 -17 -16 -13 -17 -12 -4 4 13 16 21 21 21 13z m120 0 c0 -2
-8 -10 -17 -17 -16 -13 -17 -12 -4 4 13 16 21 21 21 13z m-917 -21 c-3 -9 -8
-14 -10 -11 -3 3 -2 9 2 15 9 16 15 13 8 -4z m120 0 c-3 -9 -8 -14 -10 -11 -3
3 -2 9 2 15 9 16 15 13 8 -4z m582 6 c3 -5 2 -12 -3 -15 -5 -3 -9 1 -9 9 0 17
3 19 12 6z m120 0 c3 -5 2 -12 -3 -15 -5 -3 -9 1 -9 9 0 17 3 19 12 6z m-798
-16 c0 -8 -4 -12 -9 -9 -5 3 -6 10 -3 15 9 13 12 11 12 -6z m154 -8 c-10 -9
-11 -8 -5 6 3 10 9 15 12 12 3 -3 0 -11 -7 -18z m89 -2 c14 -19 14 -19 -2 -6
-10 7 -18 18 -18 24 0 6 1 8 3 6 1 -2 9 -13 17 -24z m120 0 c14 -19 14 -19 -2
-6 -10 7 -18 18 -18 24 0 6 1 8 3 6 1 -2 9 -13 17 -24z m124 13 c-4 -5 -9 -7
-12 -4 -3 3 -12 0 -21 -7 -14 -10 -14 -10 -4 4 13 16 46 23 37 7z m120 0 c-4
-5 -9 -7 -12 -4 -3 3 -12 0 -21 -7 -14 -10 -14 -10 -4 4 13 16 46 23 37 7z
m87 -11 c-10 -9 -11 -8 -5 6 3 10 9 15 12 12 3 -3 0 -11 -7 -18z m120 0 c-10
-9 -11 -8 -5 6 3 10 9 15 12 12 3 -3 0 -11 -7 -18z m-771 9 c0 -2 -8 -10 -17
-17 -16 -13 -17 -12 -4 4 13 16 21 21 21 13z m81 -13 c13 -16 12 -17 -3 -4
-10 7 -18 15 -18 17 0 8 8 3 21 -13z m-317 -1 c2 -4 -4 -8 -14 -8 -10 0 -16 4
-14 8 3 4 9 8 14 8 5 0 11 -4 14 -8z m120 0 c2 -4 -4 -8 -14 -8 -10 0 -16 4
-14 8 3 4 9 8 14 8 5 0 11 -4 14 -8z m-165 -29 c2 -1 -5 -1 -16 0 -11 0 -20 7
-20 14 0 10 4 10 16 1 9 -7 18 -13 20 -15z m118 -18 c0 -8 -4 -12 -9 -9 -5 4
-7 9 -4 12 3 3 -2 15 -11 26 -18 21 -18 21 3 3 11 -9 21 -24 21 -32z m419 25
c0 -12 -4 -16 -9 -11 -5 5 -6 14 -3 20 10 15 12 14 12 -9z m124 16 c0 -2 -8
-10 -17 -17 -16 -13 -17 -12 -4 4 13 16 21 21 21 13z m140 -31 c14 -19 14 -19
-2 -6 -10 7 -18 18 -18 24 0 6 1 8 3 6 1 -2 9 -13 17 -24z m160 10 c0 -2 -9
-3 -19 -2 -11 0 -18 5 -15 9 4 6 34 0 34 -7z m-764 -10 c-1 -8 -8 -21 -16 -28
-10 -10 -11 -9 -4 3 5 8 9 18 10 23 3 14 4 17 8 17 2 0 3 -7 2 -15z m640 -10
c1 -8 -1 -17 -5 -19 -4 -3 -7 6 -7 19 0 25 8 25 12 0z m43 -19 c-3 -3 -11 5
-18 17 -13 21 -12 21 5 5 10 -10 16 -20 13 -22z m206 24 c-3 -5 -12 -10 -18
-10 -7 0 -6 4 3 10 19 12 23 12 15 0z m-591 -30 c-6 -6 -10 -3 -10 10 0 13 4
16 10 10 7 -7 7 -13 0 -20z m442 4 c1 -9 0 -13 -4 -10 -3 4 -7 14 -8 22 -1 9
0 13 4 10 3 -4 7 -14 8 -22z m-1045 -1 c13 -16 12 -17 -3 -4 -10 7 -18 15 -18
17 0 8 8 3 21 -13z m694 8 c-9 -8 -36 -10 -30 -2 2 4 11 8 20 8 8 0 13 -3 10
-6z m40 -1 c3 -6 -1 -7 -9 -4 -18 7 -21 14 -7 14 6 0 13 -4 16 -10z m110 -8
c-3 -3 -11 0 -18 7 -9 10 -8 11 6 5 10 -3 15 -9 12 -12z m342 -7 c0 -8 -10
-23 -21 -32 -21 -18 -21 -18 -2 5 11 12 16 22 12 22 -4 0 -4 5 -1 10 9 14 12
13 12 -5z m-1037 -9 c-7 -7 -13 -7 -20 0 -6 6 -3 10 10 10 13 0 16 -4 10 -10z
m86 2 c3 -4 -1 -5 -10 -4 -8 1 -18 5 -22 8 -3 4 1 5 10 4 8 -1 18 -5 22 -8z
m192 -7 c-7 -9 -13 -18 -15 -20 -1 -2 -1 5 0 16 0 11 7 20 14 20 10 0 10 -4 1
-16z m122 7 c0 -4 -4 -8 -9 -8 -6 0 -12 4 -15 8 -3 5 1 9 9 9 8 0 15 -4 15 -9z
m119 -22 c-3 -3 -11 5 -18 17 -13 21 -12 21 5 5 10 -10 16 -20 13 -22z m-379
20 c0 -2 -8 -10 -17 -17 -16 -13 -17 -12 -4 4 13 16 21 21 21 13z m176 -14
c-3 -3 0 -12 6 -21 10 -13 10 -14 -2 -4 -16 15 -23 46 -8 37 5 -3 7 -9 4 -12z
m494 3 c-7 -9 -15 -13 -18 -10 -3 3 -12 -1 -21 -8 -14 -11 -14 -10 -2 5 7 10
17 16 21 13 5 -3 11 -1 15 5 3 5 9 10 12 10 3 0 0 -7 -7 -15z m-965 -5 c-3 -5
-12 -10 -18 -10 -7 0 -6 4 3 10 19 12 23 12 15 0z m112 -9 c0 -11 -5 -18 -9
-15 -4 3 -5 11 -1 19 7 21 12 19 10 -4z m243 4 c0 -2 -9 -3 -19 -2 -11 0 -18
5 -15 9 4 6 34 0 34 -7z m157 -4 c0 -11 -5 -18 -9 -15 -4 3 -5 11 -1 19 7 21
12 19 10 -4z m81 -2 c9 -12 9 -16 -1 -16 -7 0 -14 9 -14 20 -1 11 -1 18 0 16
2 -2 8 -11 15 -20z m37 12 c3 -5 2 -12 -3 -15 -5 -3 -9 1 -9 9 0 17 3 19 12 6z
m204 6 c-2 -1 -13 -9 -24 -17 -19 -14 -19 -14 -6 3 7 9 18 17 24 17 6 0 8 -1
6 -3z m238 -15 c0 -10 -6 -19 -13 -19 -9 0 -9 5 -1 19 7 10 13 18 14 18 1 0 1
-8 0 -18z m-917 4 c0 -2 -8 -10 -17 -17 -16 -13 -17 -12 -4 4 13 16 21 21 21
13z m705 -53 c-18 -17 -18 -17 -6 0 11 14 11 20 0 35 -12 16 -12 16 6 0 19
-18 19 -18 0 -35z m-524 20 c13 -16 12 -17 -3 -4 -10 7 -18 15 -18 17 0 8 8 3
21 -13z m35 -3 c0 -12 -4 -16 -9 -11 -5 5 -6 14 -3 20 10 15 12 14 12 -9z m78
-10 c-6 -6 -10 -3 -10 10 0 13 4 16 10 10 7 -7 7 -13 0 -20z m196 15 c-7 -8
-17 -15 -23 -15 -6 0 -2 7 9 15 25 19 30 19 14 0z m130 12 c0 -2 -12 -14 -27
-28 -15 -13 -22 -17 -15 -8 6 9 8 20 4 24 -4 5 -2 5 5 1 6 -3 14 -2 18 4 6 10
15 14 15 7z m-96 -15 c3 -5 -1 -9 -9 -9 -8 0 -12 4 -9 9 3 4 7 8 9 8 2 0 6 -4
9 -8z m-727 -17 c0 -8 -4 -12 -9 -9 -5 3 -6 10 -3 15 9 13 12 11 12 -6z m47
-7 c-3 -4 -9 -8 -15 -8 -5 0 -9 4 -9 8 0 5 7 9 15 9 8 0 12 -4 9 -9z m33 -10
c2 -17 0 -19 -7 -8 -5 8 -6 18 -4 22 8 12 10 10 11 -14z m81 3 c-7 -9 -13 -18
-15 -20 -1 -2 -1 5 0 16 0 11 7 20 14 20 10 0 10 -4 1 -16z m959 -4 c1 -11 1
-18 0 -16 -2 2 -8 11 -15 20 -9 12 -9 16 1 16 7 0 14 -9 14 -20z m-922 4 c3
-5 2 -12 -3 -15 -5 -3 -9 1 -9 9 0 17 3 19 12 6z m421 -11 c0 -12 -4 -16 -9
-11 -5 5 -6 14 -3 20 10 15 12 14 12 -9z m138 -9 c-2 -3 -12 3 -22 13 -16 17
-16 18 5 5 12 -7 20 -15 17 -18z m125 2 c2 -1 -5 -1 -16 0 -11 0 -20 7 -20 14
0 10 4 10 16 1 9 -7 18 -13 20 -15z m113 12 c3 3 11 -3 19 -12 12 -16 12 -17
-2 -6 -9 7 -18 11 -21 8 -3 -3 -11 3 -19 12 -12 16 -12 17 2 6 9 -7 18 -11 21
-8z m225 0 c0 -8 -3 -13 -5 -10 -3 3 -12 -1 -21 -7 -10 -8 -9 -4 3 10 23 26
23 26 23 7z m-960 -12 c0 -10 -4 -10 -16 -1 -9 7 -18 13 -20 15 -2 1 5 1 16 0
11 0 20 -7 20 -14z m62 14 c-2 -2 -11 -8 -20 -15 -12 -9 -16 -9 -16 1 0 7 9
14 20 14 11 1 18 1 16 0z m271 -1 c0 -2 -8 -10 -17 -17 -16 -13 -17 -12 -4 4
13 16 21 21 21 13z m-466 -24 c2 -4 -4 -8 -14 -8 -10 0 -16 4 -14 8 3 4 9 8
14 8 5 0 11 -4 14 -8z m353 -10 c-17 -18 -51 -27 -41 -10 3 5 9 6 14 3 4 -3
13 2 20 10 7 8 15 15 18 15 3 0 -2 -8 -11 -18z m48 8 c-3 -5 -12 -10 -18 -10
-7 0 -6 4 3 10 19 12 23 12 15 0z m640 1 c-9 -8 -36 -10 -30 -2 2 4 11 8 20 8
8 0 13 -3 10 -6z m-991 -31 c-6 -6 -10 -3 -10 10 0 13 4 16 10 10 7 -7 7 -13
0 -20z m242 15 c-1 -8 -5 -17 -8 -21 -5 -4 -4 16 1 34 3 9 9 -1 7 -13z m424
11 c0 -2 -8 -10 -17 -17 -16 -13 -17 -12 -4 4 13 16 21 21 21 13z m-814 -18
c3 -4 -1 -5 -10 -4 -8 1 -18 5 -22 8 -3 4 1 5 10 4 8 -1 18 -5 22 -8z m238 4
c3 -5 -1 -9 -9 -9 -8 0 -12 4 -9 9 3 4 7 8 9 8 2 0 6 -4 9 -8z m362 -4 c3 -4
-1 -5 -10 -4 -8 1 -18 5 -22 8 -3 4 1 5 10 4 8 -1 18 -5 22 -8z m271 -3 c0 -8
-4 -12 -9 -9 -4 3 -8 9 -8 15 0 5 4 9 8 9 5 0 9 -7 9 -15z m104 2 c-6 -8 -9
-16 -6 -19 3 -3 -3 -11 -12 -19 -16 -13 -17 -12 -4 4 7 9 10 17 6 17 -4 0 -2
7 5 15 7 8 15 15 17 15 3 0 0 -6 -6 -13z m192 -2 c4 -8 3 -16 -1 -19 -4 -3 -9
4 -9 15 -2 23 3 25 10 4z m-835 -20 c-3 -3 -9 2 -12 12 -6 14 -5 15 5 6 7 -7
10 -15 7 -18z m163 8 c13 -16 12 -17 -3 -4 -17 13 -22 21 -14 21 2 0 10 -8 17
-17z m164 -2 c-9 -8 -36 -10 -30 -2 2 4 11 8 20 8 8 0 13 -3 10 -6z m81 -3 c3
-4 -1 -5 -10 -4 -8 1 -18 5 -22 8 -3 4 1 5 10 4 8 -1 18 -5 22 -8z m278 4 c2
-4 -4 -8 -14 -8 -10 0 -16 4 -14 8 3 4 9 8 14 8 5 0 11 -4 14 -8z m-756 -11
c16 12 16 12 0 -6 -18 -19 -18 -19 -35 0 -17 18 -17 18 0 6 14 -11 20 -11 35
0z m206 -21 c-6 -6 -10 -3 -10 10 0 13 4 16 10 10 7 -7 7 -13 0 -20z m83 17
c0 -7 -9 -14 -20 -14 -19 -2 -19 -2 -1 12 11 8 19 15 20 15 0 0 1 -6 1 -13z
m240 0 c0 -7 -9 -14 -20 -14 -19 -2 -19 -2 -1 12 11 8 19 15 20 15 0 0 1 -6 1
-13z m303 -2 c0 -7 -30 -13 -34 -7 -3 4 4 9 15 9 10 1 19 0 19 -2z m-1044 -51
c1 -9 -1 -13 -4 -9 -4 4 -7 10 -7 13 0 4 -4 14 -9 22 -7 12 -6 13 4 3 8 -7 15
-20 16 -29z m79 16 c-10 -11 -20 -18 -23 -15 -3 3 -15 -3 -26 -12 -21 -18 -21
-18 -2 4 10 13 22 20 26 18 4 -3 13 2 20 10 7 8 15 15 18 15 3 0 -3 -9 -13
-20z m45 -11 c0 -5 -4 -9 -8 -9 -5 0 -9 7 -9 15 0 8 4 12 9 9 4 -3 8 -9 8 -15z
m234 -9 c-6 -6 -10 -3 -10 10 0 13 4 16 10 10 7 -7 7 -13 0 -20z m100 0 c-6
-6 -10 -3 -10 10 0 13 4 16 10 10 7 -7 7 -13 0 -20z m-257 5 c0 -8 -4 -12 -9
-9 -4 3 -8 9 -8 15 0 5 4 9 8 9 5 0 9 -7 9 -15z m383 5 c0 -5 -4 -10 -10 -10
-5 0 -10 5 -10 10 0 6 5 10 10 10 6 0 10 -4 10 -10z m120 0 c0 -5 -4 -10 -10
-10 -5 0 -10 5 -10 10 0 6 5 10 10 10 6 0 10 -4 10 -10z m115 -8 c-3 -3 -11 0
-18 7 -9 10 -8 11 6 5 10 -3 15 -9 12 -12z m120 0 c-3 -3 -11 0 -18 7 -9 10
-8 11 6 5 10 -3 15 -9 12 -12z m-841 -42 c-6 -6 -10 -3 -10 10 0 13 4 16 10
10 7 -7 7 -13 0 -20z m320 0 c-6 -6 -10 -3 -10 10 0 13 4 16 10 10 7 -7 7 -13
0 -20z m-477 3 c0 -10 -4 -10 -16 -1 -9 7 -18 13 -20 15 -2 1 5 1 16 0 11 0
20 -7 20 -14z m274 0 c13 -16 12 -17 -3 -4 -15 11 -21 11 -35 0 -16 -13 -17
-12 -4 4 7 9 17 17 21 17 4 0 14 -8 21 -17z m283 5 c-3 -4 -11 -5 -19 -1 -21
7 -19 12 4 10 11 0 18 -5 15 -9z m143 -7 c0 -11 -5 -18 -9 -15 -4 3 -5 11 -1
19 7 21 12 19 10 -4z m100 2 c0 -10 -4 -10 -16 -1 -9 7 -18 13 -20 15 -2 1 5
1 16 0 11 0 20 -7 20 -14z m62 14 c-2 -1 -13 -9 -24 -17 -19 -14 -19 -14 -6 3
7 9 18 17 24 17 6 0 8 -1 6 -3z m172 -14 c13 -17 13 -17 -6 -3 -11 8 -22 16
-24 17 -2 2 0 3 6 3 6 0 17 -8 24 -17z m-691 -15 c0 -4 -4 -8 -9 -8 -6 0 -12
4 -15 8 -3 5 1 9 9 9 8 0 15 -4 15 -9z m326 0 c3 -4 -1 -5 -10 -4 -8 1 -18 5
-22 8 -3 4 1 5 10 4 8 -1 18 -5 22 -8z m79 3 c-9 -8 -36 -10 -30 -2 2 4 11 8
20 8 8 0 13 -3 10 -6z m161 -3 c3 -4 -1 -5 -10 -4 -8 1 -18 5 -22 8 -3 4 1 5
10 4 8 -1 18 -5 22 -8z m79 3 c-9 -8 -36 -10 -30 -2 2 4 11 8 20 8 8 0 13 -3
10 -6z m125 6 c0 -2 -9 -12 -19 -21 -14 -13 -21 -14 -27 -5 -4 7 -3 10 3 6 6
-4 16 0 23 8 12 14 20 19 20 12z m-714 -33 c1 -9 0 -13 -4 -10 -3 4 -7 14 -8
22 -1 9 0 13 4 10 3 -4 7 -14 8 -22z m161 11 c0 -8 -4 -12 -9 -9 -5 3 -6 10
-3 15 9 13 12 11 12 -6z m55 3 c-14 -14 -44 -20 -36 -7 3 5 9 7 14 4 5 -3 11
-1 15 5 3 5 9 10 13 10 3 0 1 -5 -6 -12z m-532 -2 c0 -2 -7 -7 -16 -10 -8 -3
-12 -2 -9 4 6 10 25 14 25 6z m40 -2 c0 -8 -19 -13 -24 -6 -3 5 1 9 9 9 8 0
15 -2 15 -3z m125 -3 c-9 -8 -36 -10 -30 -2 2 4 11 8 20 8 8 0 13 -3 10 -6z
m212 -15 c18 -21 18 -21 -3 -3 -11 9 -23 14 -26 11 -3 -3 -8 -1 -12 4 -11 18
25 8 41 -12z m373 20 c0 -2 -8 -10 -17 -17 -16 -13 -17 -12 -4 4 13 16 21 21
21 13z m216 -8 c3 -4 -1 -5 -10 -4 -8 1 -18 5 -22 8 -3 4 1 5 10 4 8 -1 18 -5
22 -8z m-1061 -18 c3 -6 -1 -7 -9 -4 -18 7 -21 14 -7 14 6 0 13 -4 16 -10z
m153 -9 c-7 -9 -13 -18 -15 -20 -1 -2 -1 5 0 16 0 11 7 20 14 20 10 0 10 -4 1
-16z m47 9 c3 -6 -1 -7 -9 -4 -18 7 -21 14 -7 14 6 0 13 -4 16 -10z m320 0 c3
-6 -1 -7 -9 -4 -18 7 -21 14 -7 14 6 0 13 -4 16 -10z m-275 -15 c-7 -8 -17
-15 -23 -15 -6 0 -2 7 9 15 25 19 30 19 14 0z m69 -12 c2 -1 -5 -1 -16 0 -11
0 -20 7 -20 14 0 10 4 10 16 1 9 -7 18 -13 20 -15z m262 10 c13 -16 12 -17 -3
-4 -10 7 -18 15 -18 17 0 8 8 3 21 -13z m507 8 c16 12 16 12 0 -6 -18 -19 -18
-19 -35 0 -17 18 -17 18 0 6 14 -11 20 -11 35 0z m-674 -9 c2 -4 -5 -9 -17 -9
-17 -2 -19 0 -7 7 18 12 18 12 24 2z m345 5 c-2 -1 -13 -9 -24 -17 -19 -14
-19 -14 -6 3 7 9 18 17 24 17 6 0 8 -1 6 -3z m172 -14 c13 -17 13 -17 -6 -3
-11 8 -22 16 -24 17 -2 2 0 3 6 3 6 0 17 -8 24 -17z m-119 -28 c2 3 5 -2 5
-10 0 -10 -4 -12 -12 -5 -7 5 -16 6 -21 2 -5 -4 -6 -3 -2 2 4 5 2 16 -4 25
-10 12 -7 12 8 -2 11 -9 23 -15 26 -12z m78 22 c0 -2 -12 -14 -27 -28 l-28
-24 24 28 c23 25 31 32 31 24z m-818 -22 c3 3 11 -3 19 -12 12 -16 12 -17 -2
-6 -9 7 -18 11 -21 8 -3 -3 -11 3 -19 12 -12 16 -12 17 2 6 9 -7 18 -11 21 -8z
m109 -2 c13 -16 12 -17 -3 -4 -10 7 -18 15 -18 17 0 8 8 3 21 -13z m235 -3 c0
-12 -4 -16 -9 -11 -5 5 -6 14 -3 20 10 15 12 14 12 -9z m199 8 c5 4 5 1 1 -6
-6 -10 -11 -10 -22 -1 -8 6 -14 14 -14 16 0 3 6 0 13 -6 8 -6 18 -7 22 -3z
m462 -3 c0 -8 -4 -12 -9 -9 -5 3 -6 10 -3 15 9 13 12 11 12 -6z m-1052 -5 c-3
-5 -12 -10 -18 -10 -7 0 -6 4 3 10 19 12 23 12 15 0z m672 -7 c0 -10 -4 -10
-16 -1 -9 7 -18 13 -20 15 -2 1 5 1 16 0 11 0 20 -7 20 -14z m302 14 c-2 -1
-13 -9 -24 -17 -19 -14 -19 -14 -6 3 7 9 18 17 24 17 6 0 8 -1 6 -3z m-478
-30 c-6 -8 -9 -16 -6 -19 3 -3 -3 -11 -12 -19 -16 -13 -17 -12 -4 4 7 9 10 17
6 17 -4 0 -2 7 5 15 7 8 15 15 17 15 3 0 0 -6 -6 -13z m117 -6 c-7 -9 -13 -18
-15 -20 -1 -2 -1 5 0 16 0 11 7 20 14 20 10 0 10 -4 1 -16z m399 -4 c1 -11 1
-18 0 -16 -2 2 -8 11 -15 20 -9 12 -9 16 1 16 7 0 14 -9 14 -20z m-40 -2 c0
-8 -4 -12 -9 -9 -5 3 -6 10 -3 15 9 13 12 11 12 -6z m-992 -5 c3 -6 -1 -7 -9
-4 -18 7 -21 14 -7 14 6 0 13 -4 16 -10z m235 0 c0 -5 -2 -10 -4 -10 -3 0 -8
5 -11 10 -3 6 -1 10 4 10 6 0 11 -4 11 -10z m91 -7 c13 -17 13 -17 -6 -3 -11
8 -22 16 -24 17 -2 2 0 3 6 3 6 0 17 -8 24 -17z m68 14 c-2 -2 -11 -8 -20 -15
-12 -9 -16 -9 -16 1 0 7 9 14 20 14 11 1 18 1 16 0z m74 -12 c4 -8 3 -16 -1
-19 -4 -3 -9 4 -9 15 -2 23 3 25 10 4z m233 -13 c-17 -16 -18 -16 -5 5 7 12
15 20 18 17 3 -2 -3 -12 -13 -22z m252 7 c9 -12 9 -16 -1 -16 -7 0 -14 9 -14
20 -1 11 -1 18 0 16 2 -2 8 -11 15 -20z m-800 -19 c-7 -10 -14 -17 -17 -15 -4
4 18 35 25 35 2 0 -1 -9 -8 -20z m47 10 c3 -6 -1 -7 -9 -4 -18 7 -21 14 -7 14
6 0 13 -4 16 -10z m80 1 c-9 -8 -36 -10 -30 -2 2 4 11 8 20 8 8 0 13 -3 10 -6z
m315 1 c0 -5 -7 -9 -15 -9 -8 0 -12 4 -9 9 3 4 9 8 15 8 5 0 9 -4 9 -8z m-504
-17 c-1 -8 -5 -17 -8 -21 -5 -4 -4 16 1 34 3 9 9 -1 7 -13z m578 -14 c-2 -3
-12 3 -22 13 -16 17 -16 18 5 5 12 -7 20 -15 17 -18z m342 9 c0 -12 -4 -16 -9
-11 -5 5 -6 14 -3 20 10 15 12 14 12 -9z m-665 -7 c13 -16 12 -17 -3 -4 -10 7
-18 15 -18 17 0 8 8 3 21 -13z m434 7 c-3 -5 -12 -10 -18 -10 -7 0 -6 4 3 10
19 12 23 12 15 0z m110 -8 c-3 -3 -11 0 -18 7 -9 10 -8 11 6 5 10 -3 15 -9 12
-12z m39 10 c3 -5 -1 -9 -9 -9 -8 0 -12 4 -9 9 3 4 7 8 9 8 2 0 6 -4 9 -8z
m-939 -11 c3 -5 2 -12 -3 -15 -5 -3 -9 1 -9 9 0 17 3 19 12 6z m36 -24 c-10
-9 -11 -8 -5 6 3 10 9 15 12 12 3 -3 0 -11 -7 -18z m150 -4 c13 -16 12 -17 -3
-4 -10 7 -18 15 -18 17 0 8 8 3 21 -13z m275 -3 c0 -12 -4 -16 -9 -11 -5 5 -6
14 -3 20 10 15 12 14 12 -9z m518 -10 c-6 -6 -10 -3 -10 10 0 13 4 16 10 10 7
-7 7 -13 0 -20z m-894 -5 c14 -19 14 -19 -2 -6 -10 7 -18 18 -18 24 0 6 1 8 3
6 1 -2 9 -13 17 -24z m199 22 c-2 -1 -13 -9 -24 -17 -19 -14 -19 -14 -6 3 7 9
18 17 24 17 6 0 8 -1 6 -3z m412 -14 c13 -17 13 -17 -6 -3 -11 8 -22 16 -24
17 -2 2 0 3 6 3 6 0 17 -8 24 -17z m120 0 c13 -17 13 -17 -6 -3 -11 8 -22 16
-24 17 -2 2 0 3 6 3 6 0 17 -8 24 -17z m-816 -2 c3 -5 2 -12 -3 -15 -5 -3 -9
1 -9 9 0 17 3 19 12 6z m325 -26 c13 -14 21 -25 18 -25 -2 0 -15 11 -28 25
-13 14 -21 25 -18 25 2 0 15 -11 28 -25z m90 21 c0 -2 -8 -10 -17 -17 -16 -13
-17 -12 -4 4 13 16 21 21 21 13z m120 0 c0 -2 -8 -10 -17 -17 -16 -13 -17 -12
-4 4 13 16 21 21 21 13z m120 0 c0 -2 -8 -10 -17 -17 -16 -13 -17 -12 -4 4 13
16 21 21 21 13z m120 0 c0 -2 -8 -10 -17 -17 -16 -13 -17 -12 -4 4 13 16 21
21 21 13z m141 -13 c13 -16 12 -17 -3 -4 -17 13 -22 21 -14 21 2 0 10 -8 17
-17z m99 13 c0 -2 -8 -10 -17 -17 -16 -13 -17 -12 -4 4 13 16 21 21 21 13z
m-894 -32 c1 -9 0 -13 -4 -10 -3 4 -7 14 -8 22 -1 9 0 13 4 10 3 -4 7 -14 8
-22z m764 23 c0 -2 -8 -11 -18 -20 -15 -14 -19 -15 -19 -2 0 8 4 12 8 9 4 -2
10 0 14 6 6 10 15 14 15 7z m-816 -19 c-4 -5 -9 -7 -12 -4 -3 3 -12 0 -21 -7
-14 -10 -14 -10 -4 4 13 16 46 23 37 7z m148 -8 c11 -12 11 -12 -2 -3 -8 6
-30 10 -47 8 -18 -1 -31 1 -28 4 7 13 64 6 77 -9z m-118 -40 c-6 -6 -10 -3
-10 10 0 13 4 16 10 10 7 -7 7 -13 0 -20z m-64 16 c0 -2 -8 -10 -17 -17 -16
-13 -17 -12 -4 4 13 16 21 21 21 13z m101 -13 c13 -16 12 -17 -3 -4 -17 13
-22 21 -14 21 2 0 10 -8 17 -17z m106 -1 c0 -10 -6 -19 -13 -19 -9 0 -9 5 -1
19 7 10 13 18 14 18 1 0 1 -8 0 -18z m162 15 c-2 -1 -13 -9 -24 -17 -19 -14
-19 -14 -6 3 7 9 18 17 24 17 6 0 8 -1 6 -3z m81 -7 c0 -5 -2 -10 -4 -10 -3 0
-8 5 -11 10 -3 6 -1 10 4 10 6 0 11 -4 11 -10z m91 -7 c13 -17 13 -17 -6 -3
-11 8 -22 16 -24 17 -2 2 0 3 6 3 6 0 17 -8 24 -17z m68 14 c-2 -2 -11 -8 -20
-15 -12 -9 -16 -9 -16 1 0 7 9 14 20 14 11 1 18 1 16 0z m74 -12 c4 -8 3 -16
-1 -19 -4 -3 -9 4 -9 15 -2 23 3 25 10 4z m167 10 c0 -7 -30 -13 -34 -7 -3 4
4 9 15 9 10 1 19 0 19 -2z m-685 -33 c-3 -3 -11 0 -18 7 -9 10 -8 11 6 5 10
-3 15 -9 12 -12z m251 6 c3 -4 -1 -5 -10 -4 -8 1 -18 5 -22 8 -3 4 1 5 10 4 8
-1 18 -5 22 -8z m79 3 c-9 -8 -36 -10 -30 -2 2 4 11 8 20 8 8 0 13 -3 10 -6z
m161 -3 c3 -4 -1 -5 -10 -4 -8 1 -18 5 -22 8 -3 4 1 5 10 4 8 -1 18 -5 22 -8z
m79 3 c-9 -8 -36 -10 -30 -2 2 4 11 8 20 8 8 0 13 -3 10 -6z m-730 -19 c-3 -3
0 -10 5 -17 7 -8 5 -12 -5 -12 -8 0 -13 3 -10 5 3 3 0 10 -5 17 -7 8 -5 12 5
12 8 0 13 -3 10 -5z m70 -1 c-9 -8 -36 -10 -30 -2 2 4 11 8 20 8 8 0 13 -3 10
-6z m159 1 c3 -5 -1 -9 -9 -9 -8 0 -12 4 -9 9 3 4 7 8 9 8 2 0 6 -4 9 -8z m41
-2 c-3 -5 -12 -10 -18 -10 -7 0 -6 4 3 10 19 12 23 12 15 0z m65 6 c0 -2 -8
-10 -17 -17 -16 -13 -17 -12 -4 4 13 16 21 21 21 13z m216 -8 c3 -4 -1 -5 -10
-4 -8 1 -18 5 -22 8 -3 4 1 5 10 4 8 -1 18 -5 22 -8z m250 -24 c1 -9 -1 -13
-4 -9 -4 4 -7 10 -7 13 0 4 -4 14 -9 22 -7 12 -6 13 4 3 8 -7 15 -20 16 -29z
m-636 22 c0 -2 -8 -10 -17 -17 -16 -13 -17 -12 -4 4 13 16 21 21 21 13z m232
-13 c-1 -4 7 -17 16 -28 17 -20 17 -20 -4 -2 -11 9 -21 24 -21 32 0 8 2 13 5
11 2 -2 4 -8 4 -13z m325 2 c0 -8 -10 -23 -21 -32 -21 -18 -21 -18 -2 5 11 12
16 22 12 22 -4 0 -4 5 -1 10 9 14 12 13 12 -5z m-753 -3 c3 -5 -1 -9 -9 -9 -8
0 -15 4 -15 9 0 4 4 8 9 8 6 0 12 -4 15 -8z m96 -6 c0 -2 -8 -10 -17 -17 -16
-13 -17 -12 -4 4 13 16 21 21 21 13z m59 -23 c2 -1 -5 -1 -16 0 -11 0 -20 7
-20 14 0 10 4 10 16 1 9 -7 18 -13 20 -15z m57 7 c0 -12 -4 -16 -9 -11 -5 5
-6 14 -3 20 10 15 12 14 12 -9z m392 11 c16 12 16 12 0 -6 -18 -19 -18 -19
-35 0 -17 18 -17 18 0 6 14 -11 20 -11 35 0z m-333 -41 c-10 -11 -20 -18 -23
-15 -3 3 -15 -3 -26 -12 -21 -18 -21 -18 -2 4 10 13 22 20 26 18 4 -3 13 2 20
10 7 8 15 15 18 15 3 0 -3 -9 -13 -20z m135 16 c0 -2 -8 -10 -17 -17 -16 -13
-17 -12 -4 4 13 16 21 21 21 13z m95 -43 c-18 -17 -18 -17 -6 0 11 14 11 20 0
35 -12 16 -12 16 6 0 19 -18 19 -18 0 -35z m295 33 c-7 -7 -13 -7 -20 0 -6 6
-3 10 10 10 13 0 16 -4 10 -10z m81 1 c-6 -8 -7 -18 -3 -22 4 -5 1 -5 -6 -1
-10 6 -10 11 -1 22 6 8 14 14 16 14 3 0 0 -6 -6 -13z m-565 -15 c-3 -3 0 -12
6 -21 10 -13 10 -14 -2 -4 -16 15 -23 46 -8 37 5 -3 7 -9 4 -12z m280 -2 c0
-12 -4 -16 -9 -11 -5 5 -6 14 -3 20 10 15 12 14 12 -9z m-239 -9 c0 -11 -5
-18 -9 -15 -4 3 -5 11 -1 19 7 21 12 19 10 -4z m-321 -17 c1 -9 0 -13 -4 -10
-3 4 -7 14 -8 22 -1 9 0 13 4 10 3 -4 7 -14 8 -22z m164 10 c0 -8 -19 -13 -24
-6 -3 5 1 9 9 9 8 0 15 -2 15 -3z m204 -2 c2 -4 -4 -8 -14 -8 -10 0 -16 4 -14
8 3 4 9 8 14 8 5 0 11 -4 14 -8z m75 -29 c2 -1 -5 -1 -16 0 -11 0 -20 7 -20
14 0 10 4 10 16 1 9 -7 18 -13 20 -15z m95 -3 c-6 -6 -10 -3 -10 10 0 13 4 16
10 10 7 -7 7 -13 0 -20z m-417 1 c0 -11 -5 -18 -9 -15 -4 3 -5 11 -1 19 7 21
12 19 10 -4z m454 2 c13 -16 12 -17 -3 -4 -17 13 -22 21 -14 21 2 0 10 -8 17
-17z m106 -1 c0 -10 -6 -19 -13 -19 -9 0 -9 5 -1 19 7 10 13 18 14 18 1 0 1
-8 0 -18z m100 1 c0 -10 -4 -10 -16 -1 -9 7 -18 13 -20 15 -2 1 5 1 16 0 11 0
20 -7 20 -14z m-617 3 c0 -2 -8 -10 -17 -17 -16 -13 -17 -12 -4 4 13 16 21 21
21 13z m-200 -20 c-7 -7 -13 -7 -20 0 -6 6 -3 10 10 10 13 0 16 -4 10 -10z
m126 2 c3 -4 -1 -5 -10 -4 -8 1 -18 5 -22 8 -3 4 1 5 10 4 8 -1 18 -5 22 -8z
m309 3 c3 -5 2 -12 -3 -15 -5 -3 -9 1 -9 9 0 17 3 19 12 6z m245 3 c0 -8 -19
-13 -24 -6 -3 5 1 9 9 9 8 0 15 -2 15 -3z m-464 -24 c0 -12 -4 -16 -9 -11 -5
5 -6 14 -3 20 10 15 12 14 12 -9z m-171 1 c-9 -8 -36 -10 -30 -2 2 4 11 8 20
8 8 0 13 -3 10 -6z m326 -8 c13 -16 12 -17 -3 -4 -17 13 -22 21 -14 21 2 0 10
-8 17 -17z m214 8 c-9 -8 -36 -10 -30 -2 2 4 11 8 20 8 8 0 13 -3 10 -6z
m-469 -19 c-3 -3 0 -12 6 -21 10 -13 10 -14 -2 -4 -16 15 -23 46 -8 37 5 -3 7
-9 4 -12z m164 -6 c-7 -7 -13 -7 -20 0 -6 6 -3 10 10 10 13 0 16 -4 10 -10z
m154 -2 c3 -8 2 -12 -4 -9 -6 3 -10 10 -10 16 0 14 7 11 14 -7z m92 4 c3 -4
-1 -5 -10 -4 -8 1 -18 5 -22 8 -3 4 1 5 10 4 8 -1 18 -5 22 -8z m159 3 c-9 -8
-36 -10 -30 -2 2 4 11 8 20 8 8 0 13 -3 10 -6z m28 -16 c-7 -21 -12 -19 -10 4
0 11 5 18 9 15 4 -3 5 -11 1 -19z m47 -6 c0 -5 -5 -9 -12 -9 -6 0 -8 3 -5 7 4
3 1 13 -6 22 -11 14 -10 14 6 2 9 -7 17 -17 17 -22z m-750 6 c-7 -8 -17 -15
-23 -15 -6 0 -2 7 9 15 25 19 30 19 14 0z m560 0 c-7 -8 -17 -15 -23 -15 -6 0
-2 7 9 15 25 19 30 19 14 0z m69 -12 c2 -1 -5 -1 -16 0 -11 0 -20 7 -20 14 0
10 4 10 16 1 9 -7 18 -13 20 -15z m-402 -1 c0 -10 -6 -19 -13 -19 -9 0 -9 5
-1 19 7 10 13 18 14 18 1 0 1 -8 0 -18z m81 -3 c9 -12 9 -16 -1 -16 -7 0 -14
9 -14 20 -1 11 -1 18 0 16 2 -2 8 -11 15 -20z m42 6 c-5 -7 -9 -14 -7 -16 1
-2 0 -3 -2 -1 -11 7 -7 29 5 29 9 0 11 -4 4 -12z m117 -4 c0 -11 -5 -18 -9
-15 -4 3 -5 11 -1 19 7 21 12 19 10 -4z m-440 -23 c4 -28 -6 -18 -12 12 -2 12
-1 20 2 16 4 -4 8 -16 10 -28z m483 28 c0 -2 -8 -10 -17 -17 -16 -13 -17 -12
-4 4 13 16 21 21 21 13z m-320 -12 c0 -8 -19 -13 -24 -6 -3 5 1 9 9 9 8 0 15
-2 15 -3z m-64 -19 c-1 -8 -5 -17 -8 -21 -5 -4 -4 16 1 34 3 9 9 -1 7 -13z
m297 -15 c10 -12 9 -12 -4 -2 -9 6 -18 9 -21 6 -3 -3 -9 -1 -12 4 -9 15 22 8
37 -8z m112 10 c3 -6 -1 -7 -9 -4 -18 7 -21 14 -7 14 6 0 13 -4 16 -10z m120
0 c3 -6 -1 -7 -9 -4 -18 7 -21 14 -7 14 6 0 13 -4 16 -10z m-24 -17 c13 -16
12 -17 -3 -4 -17 13 -22 21 -14 21 2 0 10 -8 17 -17z m-324 -16 c1 -11 1 -18
0 -16 -2 2 -8 11 -15 20 -9 12 -9 16 1 16 7 0 14 -9 14 -20z m97 -17 c-6 -6
-10 -3 -10 10 0 13 4 16 10 10 7 -7 7 -13 0 -20z m-424 16 c0 -2 -8 -10 -17
-17 -16 -13 -17 -12 -4 4 13 16 21 21 21 13z m170 -11 c0 -2 -9 -3 -19 -2 -11
0 -18 5 -15 9 4 6 34 0 34 -7z m51 -2 c13 -16 12 -17 -3 -4 -17 13 -22 21 -14
21 2 0 10 -8 17 -17z m240 0 c13 -16 12 -17 -3 -4 -17 13 -22 21 -14 21 2 0
10 -8 17 -17z m-415 -11 c-3 -3 0 -12 6 -21 10 -13 10 -14 -2 -4 -16 15 -23
46 -8 37 5 -3 7 -9 4 -12z m44 -6 c-7 -7 -13 -7 -20 0 -6 6 -3 10 10 10 13 0
16 -4 10 -10z m274 -2 c3 -8 2 -12 -4 -9 -6 3 -10 10 -10 16 0 14 7 11 14 -7z
m-218 -20 c1 -9 0 -13 -4 -10 -3 4 -7 14 -8 22 -1 9 0 13 4 10 3 -4 7 -14 8
-22z m160 11 c-1 -8 -5 -17 -8 -21 -5 -4 -4 16 1 34 3 9 9 -1 7 -13z m281 0
c0 -8 -4 -12 -9 -9 -5 3 -6 10 -3 15 9 13 12 11 12 -6z m-351 -23 c-17 -16
-18 -16 -5 5 7 12 15 20 18 17 3 -2 -3 -12 -13 -22z m198 16 c-4 -5 -9 -7 -12
-4 -3 3 -12 0 -21 -7 -14 -10 -14 -10 -4 4 13 16 46 23 37 7z m-425 -42 c-3
-3 -11 5 -18 17 -13 21 -12 21 5 5 10 -10 16 -20 13 -22z m196 16 c-3 -3 -11
0 -18 7 -9 10 -8 11 6 5 10 -3 15 -9 12 -12z m325 10 c0 -5 -7 -9 -15 -9 -8 0
-12 4 -9 9 3 4 9 8 15 8 5 0 9 -4 9 -8z m-473 -20 c-10 -10 -14 -22 -10 -25 3
-4 1 -7 -5 -7 -7 0 -12 3 -12 7 0 8 31 43 38 43 3 0 -2 -8 -11 -18z m432 -9
c2 -1 -5 -1 -16 0 -11 0 -20 7 -20 14 0 10 4 10 16 1 9 -7 18 -13 20 -15z
m-322 -1 c0 -10 -6 -19 -13 -19 -9 0 -9 5 -1 19 7 10 13 18 14 18 1 0 1 -8 0
-18z m155 -27 c3 3 11 -3 19 -12 12 -16 12 -17 -2 -6 -9 7 -18 11 -21 8 -3 -3
-11 3 -19 12 -12 16 -12 17 2 6 9 -7 18 -11 21 -8z m-200 -15 c11 -12 10 -12
-2 -3 -8 6 -23 9 -32 8 -10 -2 -20 0 -23 4 -8 14 44 6 57 -9z m99 3 c12 -16
12 -17 -2 -6 -9 7 -20 9 -24 5 -5 -4 -5 -1 -1 6 9 16 11 15 27 -5z m169 7 c0
-5 -2 -10 -4 -10 -3 0 -8 5 -11 10 -3 6 -1 10 4 10 6 0 11 -4 11 -10z m96 -26
c1 -9 0 -13 -4 -10 -3 4 -7 14 -8 22 -1 9 0 13 4 10 3 -4 7 -14 8 -22z m-32 8
c2 -4 -4 -8 -14 -8 -10 0 -16 4 -14 8 3 4 9 8 14 8 5 0 11 -4 14 -8z m-45 -29
c2 -1 -5 -1 -16 0 -11 0 -20 7 -20 14 0 10 4 10 16 1 9 -7 18 -13 20 -15z
m-399 13 c0 -3 -4 -8 -10 -11 -5 -3 -10 -1 -10 4 0 6 5 11 10 11 6 0 10 -2 10
-4z m131 -13 c13 -16 12 -17 -3 -4 -15 11 -21 11 -35 0 -16 -13 -17 -12 -4 4
7 9 17 17 21 17 4 0 14 -8 21 -17z m95 -11 c-17 -16 -18 -16 -5 5 7 12 15 20
18 17 3 -2 -3 -12 -13 -22z m-261 -2 c3 -6 -1 -7 -9 -4 -18 7 -21 14 -7 14 6
0 13 -4 16 -10z m139 -19 c-8 -8 -34 -10 -38 -2 -3 4 6 7 19 7 14 0 22 -2 19
-5z m201 -1 c-3 -5 -12 -10 -18 -10 -7 0 -6 4 3 10 19 12 23 12 15 0z m-335
-16 c0 -8 -19 -13 -24 -6 -3 5 1 9 9 9 8 0 15 -2 15 -3z m76 -6 c3 -4 -1 -5
-10 -4 -8 1 -18 5 -22 8 -3 4 1 5 10 4 8 -1 18 -5 22 -8z m159 3 c-9 -8 -36
-10 -30 -2 2 4 11 8 20 8 8 0 13 -3 10 -6z m75 -22 c0 -5 -5 -9 -12 -9 -6 0
-8 3 -5 7 4 3 1 13 -6 22 -11 14 -10 14 6 2 9 -7 17 -17 17 -22z m-190 6 c-7
-8 -17 -15 -23 -15 -6 0 -2 7 9 15 25 19 30 19 14 0z m69 -12 c2 -1 -5 -1 -16
0 -11 0 -20 7 -20 14 0 10 4 10 16 1 9 -7 18 -13 20 -15z m165 9 c2 -4 -4 -8
-14 -8 -10 0 -16 4 -14 8 3 4 9 8 14 8 5 0 11 -4 14 -8z m-259 -42 c3 -6 -1
-7 -9 -4 -18 7 -21 14 -7 14 6 0 13 -4 16 -10z m115 6 c0 -3 -4 -8 -10 -11 -5
-3 -10 -1 -10 4 0 6 5 11 10 11 6 0 10 -2 10 -4z m-136 -24 c2 -4 -4 -8 -14
-8 -10 0 -16 4 -14 8 3 4 9 8 14 8 5 0 11 -4 14 -8z m56 -6 c0 -2 -8 -10 -17
-17 -16 -13 -17 -12 -4 4 13 16 21 21 21 13z m-166 -14 c3 -5 -1 -9 -9 -9 -8
0 -12 4 -9 9 3 4 7 8 9 8 2 0 6 -4 9 -8z"/>
</g>
</svg>
